<?xml version="1.0" standalone="no"?>
<!DOCTYPE svg PUBLIC "-//W3C//DTD SVG 20010904//EN"
 "http://www.w3.org/TR/2001/REC-SVG-20010904/DTD/svg10.dtd">
<svg version="1.0" xmlns="http://www.w3.org/2000/svg"
 width="301.000000pt" height="301.000000pt" viewBox="0 0 301.000000 301.000000"
 preserveAspectRatio="xMidYMid meet">
<metadata>
Created by potrace 1.11, written by Peter Selinger 2001-2013
</metadata>
<g transform="translate(0.000000,301.000000) scale(0.100000,-0.100000)"
fill="#000000" stroke="none">
<path d="M1325 2995 c63 -46 73 -62 75 -116 1 -30 2 -81 1 -114 l-1 -60 -46
47 c-93 99 -115 83 -28 -20 62 -73 74 -80 97 -58 12 12 14 39 12 134 l-3 118
-38 42 c-26 29 -45 42 -63 42 -25 -1 -25 -1 -6 -15z"/>
<path d="M2245 2979 c-84 -44 -142 -121 -163 -214 -9 -42 0 -85 18 -85 5 0 10
20 10 44 0 52 46 149 88 184 15 12 53 32 85 44 61 22 77 48 29 48 -15 0 -45
-9 -67 -21z"/>
<path d="M2360 2990 c0 -5 1 -10 3 -10 1 -1 20 -3 42 -6 21 -4 61 -12 87 -19
29 -7 51 -8 54 -3 9 13 5 16 -61 33 -68 17 -125 20 -125 5z"/>
<path d="M1241 2976 c-6 -8 -17 -39 -23 -70 -12 -53 -11 -57 11 -79 l22 -22
-6 46 c-5 32 -2 57 9 83 9 21 16 42 16 47 0 14 -16 11 -29 -5z"/>
<path d="M2576 2918 c4 -7 24 -33 44 -58 47 -59 75 -173 47 -192 -6 -4 -16 0
-22 8 -7 11 -38 16 -105 20 -52 3 -116 6 -141 8 -36 2 -54 9 -80 34 -67 62
-82 72 -109 72 -63 0 -74 -68 -28 -159 37 -72 63 -95 78 -71 5 8 10 10 10 5 0
-6 -5 -16 -12 -23 -9 -9 -8 -15 8 -26 25 -20 159 -86 172 -86 6 0 12 -4 14 -9
3 -8 84 -20 142 -21 29 0 29 0 10 -21 -10 -12 -36 -34 -57 -50 -37 -27 -39
-27 -75 -12 -42 17 -89 58 -98 85 -3 10 -12 18 -20 18 -13 0 -14 -12 -9 -74 7
-78 -1 -110 -45 -166 l-19 -25 3 27 c4 36 -19 57 -32 31 -9 -17 -8 -116 3
-168 2 -11 4 -26 4 -34 1 -7 7 -11 16 -7 25 9 17 -10 -9 -22 -13 -6 -27 -20
-31 -30 -7 -24 -64 -49 -132 -58 -26 -3 -51 -8 -55 -11 -5 -2 -8 0 -8 4 0 5
34 42 75 83 41 41 75 80 75 87 0 33 -28 17 -108 -64 -49 -48 -98 -96 -110
-105 -12 -10 -22 -22 -22 -27 0 -11 103 -19 144 -11 27 5 32 1 52 -35 13 -24
18 -44 13 -51 -10 -13 -2 -24 19 -24 24 0 82 -31 82 -44 0 -20 41 -51 101 -78
54 -25 56 -27 62 -71 4 -25 18 -71 32 -103 35 -80 32 -85 -40 -63 -32 11 -73
18 -90 17 -17 -1 -36 2 -43 6 -23 14 -74 97 -68 112 3 8 -1 31 -9 51 -19 46
-19 50 4 29 30 -27 34 -1 6 33 -14 16 -35 33 -46 36 -14 5 -17 10 -10 19 18
21 -3 33 -69 39 -36 4 -87 11 -114 17 -58 12 -66 8 -66 -31 0 -24 4 -29 25
-29 31 0 32 -10 1 -40 l-25 -23 -7 29 c-7 30 -30 79 -45 98 -5 6 -26 34 -47
61 -39 51 -43 52 -104 46 -5 -1 -8 -8 -8 -16 0 -9 9 -15 25 -15 33 0 109 -77
125 -125 11 -32 9 -38 -30 -95 -25 -36 -55 -67 -75 -77 -31 -15 -35 -14 -81
11 -73 39 -113 126 -59 126 14 0 65 86 65 111 0 41 -34 15 -60 -47 l-25 -60
-85 63 c-47 34 -90 63 -96 63 -15 0 -56 50 -41 50 6 1 27 21 45 45 19 27 41
45 52 45 13 0 18 5 14 15 -4 9 -19 15 -35 15 -32 0 -34 4 -18 49 11 32 35 41
56 20 15 -15 25 4 15 30 -10 29 -105 159 -119 165 -26 11 -12 -33 22 -75 50
-59 60 -78 36 -72 -15 4 -22 -5 -36 -47 -9 -28 -19 -70 -21 -93 -2 -22 -9 -46
-15 -51 -16 -15 -5 81 19 166 11 37 17 70 14 73 -11 11 -31 4 -35 -12 -3 -10
-5 3 -6 30 -1 39 -4 47 -20 47 -20 0 -31 -18 -31 -50 0 -15 -11 -20 -55 -25
-30 -4 -55 -11 -55 -15 0 -14 37 -40 67 -46 27 -5 32 -3 37 17 2 13 3 -1 1
-31 -1 -30 -4 -59 -5 -65 -5 -23 1 -35 19 -35 22 0 22 2 -1 -144 -9 -60 -8
-71 5 -81 13 -9 15 -30 12 -118 -2 -88 0 -109 12 -116 9 -4 13 -14 11 -22 -3
-9 14 -25 45 -42 l49 -29 87 17 c96 19 131 36 131 65 0 24 45 28 53 5 4 -9 16
-13 37 -10 37 4 285 150 305 178 11 16 18 18 42 10 33 -11 39 -46 8 -51 -18
-3 -19 -2 -2 8 20 13 14 30 -10 30 -8 0 -36 -15 -62 -33 -25 -19 -54 -37 -65
-41 -10 -3 -16 -12 -13 -20 3 -8 -5 -31 -19 -51 -26 -39 -29 -57 -14 -86 14
-25 24 -24 44 6 16 24 23 49 26 90 1 17 3 16 13 -6 7 -14 18 -33 26 -43 12
-14 11 -16 -5 -16 -52 -1 -53 -38 -2 -58 25 -9 30 -14 20 -24 -17 -17 -14 -46
7 -92 11 -22 17 -45 14 -51 -4 -13 -83 -55 -102 -55 -12 0 -33 -45 -29 -64 1
-6 -19 -33 -44 -59 -35 -36 -47 -44 -51 -32 -5 12 -12 13 -32 5 -25 -9 -84
-50 -113 -77 -7 -7 -40 -27 -74 -45 -61 -32 -123 -85 -143 -121 -9 -16 -12
-17 -30 -3 -18 14 -19 17 -5 42 9 15 42 40 80 59 36 19 72 40 80 48 8 8 25 19
37 26 18 9 93 68 128 101 30 28 39 48 42 101 2 48 9 68 38 109 37 53 43 75 23
83 -7 2 4 8 24 12 38 7 58 32 33 41 -8 3 -30 1 -49 -6 -19 -6 -47 -13 -63 -16
-15 -3 -46 -10 -68 -16 -24 -7 -97 -11 -180 -9 -137 2 -220 15 -209 33 10 15
-51 131 -133 254 -44 65 -84 129 -87 142 -6 19 0 30 34 61 42 39 49 72 10 51
-26 -14 -30 -13 -30 9 0 19 -34 38 -80 43 -17 2 -25 -2 -25 -12 0 -8 -12 -23
-27 -33 -30 -20 -35 -48 -19 -105 6 -20 6 -30 0 -27 -5 4 -9 14 -9 24 0 10 -9
26 -19 35 -21 19 -22 39 -3 58 7 7 12 18 12 25 0 7 6 13 13 13 8 0 24 11 37
25 18 19 34 25 66 25 37 0 47 5 78 42 33 38 35 44 21 57 -14 14 -19 11 -55
-28 -22 -24 -44 -40 -50 -36 -21 13 -79 -5 -85 -26 -4 -11 -19 -25 -35 -30
-19 -7 -32 -23 -43 -50 -14 -35 -19 -39 -40 -34 -15 4 -40 -1 -66 -13 -28 -14
-53 -19 -79 -15 -50 7 -70 -12 -123 -112 -40 -78 -90 -197 -88 -213 3 -17 38
-78 55 -94 11 -9 30 -18 42 -20 16 -2 29 -14 38 -36 13 -31 12 -33 -11 -42
-13 -5 -31 -23 -40 -40 -8 -16 -20 -30 -25 -30 -5 0 -44 25 -87 55 -67 47
-101 83 -103 106 0 10 77 39 101 39 14 0 19 5 17 18 -2 9 -11 16 -21 16 -9 -1
-30 -2 -46 -3 -16 0 -36 -7 -43 -13 -20 -19 -50 -38 -70 -44 -10 -4 -18 -10
-18 -14 0 -9 74 -70 84 -70 8 0 26 -15 59 -46 82 -80 182 -141 220 -135 4 0 6
-4 5 -10 -4 -15 57 -37 104 -38 32 -1 40 4 53 29 9 17 20 30 26 30 16 0 8 -16
-49 -98 -45 -65 -50 -70 -54 -47 -4 17 -1 25 9 25 30 0 7 34 -32 47 -80 27
-162 75 -275 159 -147 111 -157 115 -181 85 -10 -12 -23 -20 -28 -16 -21 12
-33 -34 -22 -88 15 -75 19 -99 20 -124 1 -12 8 -29 17 -37 8 -9 12 -16 8 -16
-5 0 -3 -5 4 -12 9 -9 15 -9 24 0 9 9 9 12 0 12 -6 0 -9 6 -6 13 2 7 -2 42
-11 78 -8 35 -15 69 -15 74 0 20 29 -46 32 -72 2 -16 9 -28 17 -28 20 0 22 49
5 97 -18 52 -18 98 0 98 19 0 26 -22 19 -64 -3 -22 -1 -42 7 -51 8 -9 12 -37
11 -68 -3 -72 -1 -165 4 -212 l4 -40 -14 38 c-18 47 -51 94 -75 107 -14 8 -25
4 -49 -15 -50 -43 -53 -119 -6 -131 13 -3 27 -15 30 -25 4 -11 20 -26 36 -34
29 -16 41 -32 15 -22 -45 18 -68 -76 -34 -141 10 -20 16 -43 13 -51 -9 -23 23
-63 46 -56 18 6 27 -9 11 -19 -19 -11 -82 -148 -98 -209 l-16 -66 29 -43 c20
-30 38 -45 58 -49 17 -3 29 -10 28 -16 -1 -6 7 -19 17 -28 11 -10 20 -29 20
-42 0 -38 49 -80 102 -88 53 -8 113 15 163 62 35 32 141 160 168 204 19 29 41
37 51 20 3 -5 22 -12 42 -16 20 -3 51 -13 70 -22 27 -14 36 -14 49 -3 9 7 14
19 11 27 -8 19 12 16 51 -8 19 -12 53 -24 74 -26 37 -5 41 -3 52 26 6 17 17
29 23 27 16 -6 138 21 192 43 26 11 76 27 112 36 80 19 150 52 150 70 0 22
-20 28 -38 12 -16 -13 -62 -30 -62 -22 0 2 7 11 16 20 19 18 8 37 -34 58 -14
6 -27 18 -30 25 -2 8 20 1 57 -17 33 -17 65 -31 71 -31 5 0 9 21 9 47 -1 27 2
69 6 95 7 45 6 49 -27 82 -31 31 -33 37 -22 58 l12 23 11 -28 c6 -16 11 -34
11 -42 0 -7 11 -22 24 -33 36 -28 82 -18 103 22 19 37 30 46 60 46 12 0 28 6
35 13 46 44 104 70 162 73 34 2 81 6 105 10 26 4 59 1 81 -6 44 -14 89 -3 132
33 45 37 79 173 81 324 2 104 4 123 18 123 21 0 62 57 55 76 -3 9 -11 12 -17
8 -9 -5 -10 3 -6 30 8 52 -2 98 -24 103 -20 5 -35 33 -18 33 6 0 9 7 5 15 -4
11 1 15 17 15 21 0 81 61 83 85 0 6 4 18 8 27 5 11 0 28 -13 47 -20 27 -20 29
-2 24 10 -3 21 0 25 5 8 14 -19 34 -72 52 -25 9 -47 21 -49 27 -4 10 107 54
170 68 18 4 49 -2 83 -15 65 -24 74 -25 74 -5 0 9 -17 23 -37 31 -21 9 -45 20
-53 24 -12 6 -15 31 -16 122 -1 63 -6 123 -12 134 -5 11 -17 46 -26 78 l-15
59 30 36 c28 34 36 61 23 74 -4 3 -8 30 -10 60 -4 42 -1 56 11 61 22 8 18 24
-7 29 l-23 4 22 2 c63 3 24 180 -57 259 -33 31 -69 45 -54 20z m-74 -268 c-11
-8 -40 -31 -65 -50 -25 -19 -51 -45 -58 -57 -11 -20 -39 -22 -39 -2 0 5 28 30
62 57 34 26 66 52 72 59 6 6 19 11 29 10 18 -1 18 -2 -1 -17z m-2 -363 c0 -14
-63 3 -84 24 -19 18 -19 18 32 2 29 -9 52 -21 52 -26z m20 -37 c0 -5 -4 -10
-10 -10 -5 0 -10 5 -10 10 0 6 5 10 10 10 6 0 10 -4 10 -10z m106 -36 c21 -6
48 -47 37 -57 -3 -3 -15 0 -27 8 -21 14 -52 23 -91 25 -20 1 -20 1 -1 15 21
16 47 19 82 9z m29 -112 c-3 -3 -11 0 -18 7 -9 10 -8 11 6 5 10 -3 15 -9 12
-12z m-352 -47 c-3 -9 -8 -14 -10 -11 -3 3 -2 9 2 15 9 16 15 13 8 -4z m357
11 c0 -11 -19 -15 -25 -6 -3 5 1 10 9 10 9 0 16 -2 16 -4z m-460 -215 c0 -17
-18 -21 -24 -6 -3 9 0 15 9 15 8 0 15 -4 15 -9z m-1297 -7 c8 -3 25 -33 37
-67 13 -34 34 -72 47 -85 l25 -23 -44 7 c-23 4 -40 3 -35 -1 10 -11 -33 -56
-46 -48 -13 8 -27 -17 -27 -49 0 -15 -4 -30 -10 -33 -10 -6 -26 -58 -36 -120
-3 -22 -7 -44 -8 -50 -2 -5 -6 -31 -11 -58 -4 -26 -11 -50 -16 -53 -5 -2 -27
31 -49 76 l-40 80 30 87 c17 48 35 93 41 99 6 7 12 30 15 50 6 48 14 57 14 17
0 -33 20 -49 39 -30 6 6 11 29 11 50 0 31 -4 40 -21 44 -14 4 -18 11 -13 22 3
9 9 25 12 36 11 45 46 64 85 49z m1364 0 c-3 -3 -12 -4 -19 -1 -8 3 -5 6 6 6
11 1 17 -2 13 -5z m76 -15 c-8 -8 -16 -8 -30 0 -16 9 -14 10 12 11 21 0 26 -3
18 -11z m137 -9 c18 -12 2 -12 -25 0 -13 6 -15 9 -5 9 8 0 22 -4 30 -9z
m-1110 -62 c0 -6 -7 -5 -15 2 -8 7 -15 17 -15 22 0 6 7 5 15 -2 8 -7 15 -17
15 -22z m-243 -28 l21 -40 -36 -10 c-52 -14 -58 -13 -38 9 24 27 -2 35 -30 9
-22 -19 -22 -19 -26 12 -3 21 -1 29 7 26 7 -2 23 6 36 18 30 29 39 26 66 -24z
m893 -43 c0 -2 -12 -14 -27 -28 l-26 -24 19 27 c16 23 34 36 34 25z m-575
-115 c-5 -6 -60 23 -72 38 -24 30 -12 29 31 -3 23 -17 42 -33 41 -35z m-175
-59 c27 -57 25 -67 -10 -80 -28 -11 -32 -9 -54 20 -48 65 -56 99 -36 153 l11
28 34 -40 c19 -21 44 -58 55 -81z m-377 22 c-21 -16 -28 -12 -20 9 4 9 13 13
22 10 14 -6 13 -8 -2 -19z m710 11 c16 -13 16 -14 -4 -19 -28 -8 -49 2 -42 19
6 17 23 17 46 0z m-395 -141 c-2 -5 -16 -17 -33 -25 -23 -11 -30 -22 -31 -45
-1 -40 5 -55 22 -55 8 0 14 -7 14 -16 0 -14 8 -16 48 -11 32 5 53 2 65 -7 10
-8 26 -12 36 -9 22 6 34 -10 36 -46 2 -41 24 -37 42 8 15 38 31 50 46 35 4 -4
-1 -19 -10 -34 -19 -33 -12 -70 18 -88 18 -11 24 -11 42 5 14 12 18 13 10 2
-8 -10 -9 -19 -3 -25 6 -6 -1 -21 -20 -42 -29 -32 -52 -42 -48 -20 4 16 -49
41 -70 33 -13 -5 -10 -11 18 -36 22 -19 27 -27 13 -20 -24 12 -28 9 -67 -44
-15 -20 -15 -20 -16 2 0 12 -7 28 -15 37 -8 8 -15 22 -15 30 0 9 -7 16 -15 16
-8 0 -15 -4 -15 -10 0 -5 5 -10 11 -10 5 0 7 -4 4 -10 -3 -5 -19 -8 -36 -6
-16 2 -32 -1 -35 -6 -3 -5 -14 -2 -25 8 -10 9 -16 21 -12 27 3 5 7 25 9 44 l3
35 -39 -7 c-33 -6 -40 -4 -40 9 0 9 -3 16 -7 16 -5 0 -18 3 -30 6 -19 5 -28
-7 -82 -115 -33 -66 -71 -136 -85 -154 -14 -19 -31 -49 -37 -68 -7 -19 -18
-41 -25 -49 -7 -8 -39 -55 -72 -103 -60 -87 -170 -212 -179 -203 -3 2 13 40
36 84 35 71 38 81 23 87 -11 4 -23 -1 -33 -14 -21 -26 -39 -9 -39 35 0 32 1
32 26 19 33 -17 103 -10 120 12 19 24 27 59 20 79 -6 15 -9 15 -29 2 -12 -8
-31 -31 -42 -51 -15 -25 -25 -33 -34 -27 -11 6 -6 21 23 68 20 33 36 67 36 77
0 18 48 93 74 114 11 10 20 10 37 1 12 -7 17 -15 11 -19 -23 -14 -73 -114 -66
-133 3 -11 7 -28 9 -37 1 -9 5 -15 8 -13 4 1 10 2 15 2 4 0 12 8 17 18 6 10
25 40 43 67 27 42 30 51 18 63 -11 12 -9 21 13 61 14 26 39 65 54 86 15 22 55
82 87 133 l59 92 -31 38 c-18 20 -33 38 -34 40 -1 2 -13 -2 -26 -9 -21 -11
-22 -11 -9 4 7 10 19 17 26 17 7 0 18 7 25 15 14 17 51 20 67 4 16 -16 59 0
71 25 10 23 55 32 50 11z m1192 -67 c0 -5 -9 -4 -20 2 -11 6 -20 12 -20 14 0
2 9 2 20 -1 11 -3 20 -9 20 -15z m-550 6 c0 -3 -11 -19 -25 -36 -14 -16 -25
-36 -25 -44 0 -12 -5 -12 -31 2 -17 8 -40 14 -50 11 -24 -6 -24 1 0 32 20 26
131 56 131 35z m-202 -52 c-17 -20 -39 -44 -46 -53 -14 -16 -18 -16 -66 1 -43
15 -51 21 -48 41 1 12 4 24 6 26 2 3 76 11 169 20 14 1 11 -6 -15 -35z m-705
-17 c-3 -9 -8 -14 -10 -11 -3 3 -2 9 2 15 9 16 15 13 8 -4z m-419 -90 c37 -24
33 -31 -19 -34 -36 -1 -47 2 -52 16 -4 10 -16 27 -28 39 -17 15 -20 25 -13 43
l8 23 39 -35 c22 -20 51 -43 65 -52z m1901 -52 l-7 -28 -12 30 c-9 21 -10 32
-2 37 18 12 29 -9 21 -39z m-1979 -79 c-4 -9 -9 -15 -11 -12 -3 3 -3 13 1 22
4 9 9 15 11 12 3 -3 3 -13 -1 -22z m98 -19 c3 -8 1 -15 -4 -15 -6 0 -10 7 -10
15 0 8 2 15 4 15 2 0 6 -7 10 -15z m-60 -45 c-1 -17 6 -40 16 -53 19 -23 14
-52 -6 -39 -36 23 -48 122 -14 122 3 0 5 -13 4 -30z m683 -16 c-3 -3 -12 -4
-19 -1 -8 3 -5 6 6 6 11 1 17 -2 13 -5z m240 -14 c-3 -11 0 -20 6 -20 7 0 4
-7 -7 -15 -10 -7 -15 -18 -12 -23 5 -8 -42 -37 -49 -30 -4 4 58 108 64 108 2
0 1 -9 -2 -20z m316 -53 c-48 -41 -94 -81 -102 -90 -7 -9 -21 -17 -31 -17 -10
0 -20 -7 -24 -15 -3 -8 -11 -15 -18 -15 -7 0 -1 11 12 24 36 35 233 186 243
186 4 0 -32 -33 -80 -73z m463 64 c21 -6 7 -8 -48 -7 -43 0 -78 4 -78 8 0 9
93 8 126 -1z m-1166 -21 c0 -5 -5 -10 -11 -10 -5 0 -7 5 -4 10 3 6 8 10 11 10
2 0 4 -4 4 -10z m1360 -4 c0 -7 -6 -19 -14 -25 -19 -16 -32 5 -16 24 16 19 30
19 30 1z m-1940 -41 c10 -12 13 -37 11 -89 -1 -44 -7 -45 -15 -1 -9 44 -16
143 -10 120 4 -11 10 -24 14 -30z m703 14 c22 -28 6 -39 -20 -13 -17 16 -18
16 -23 -3 -6 -26 -25 -9 -26 23 0 18 5 21 25 19 14 -1 33 -13 44 -26z m-722
-185 c16 -19 37 -18 42 4 3 9 5 1 6 -18 0 -19 -4 -42 -9 -50 -8 -12 -10 -11
-10 7 0 15 -8 25 -24 29 -21 5 -26 15 -35 68 -15 88 -12 114 4 38 8 -35 19
-70 26 -78z m629 86 c0 -11 -6 -19 -12 -17 -14 2 -14 -4 -5 -68 l6 -40 -11 43
c-13 51 -48 59 -39 8 1 -5 -5 -6 -14 -2 -9 3 -24 6 -33 7 -14 0 -14 2 -2 6 8
3 24 16 35 27 18 20 65 56 72 56 2 0 3 -9 3 -20z m296 -90 c3 -14 22 -43 42
-64 l37 -40 -45 34 c-25 19 -47 37 -50 40 -24 25 -39 30 -64 20 -14 -5 -26 -7
-26 -4 0 2 17 27 37 54 l37 50 14 -33 c7 -17 16 -43 18 -57z m547 73 c-7 -2
-21 -2 -30 0 -10 3 -4 5 12 5 17 0 24 -2 18 -5z m-653 -16 c0 -2 -11 -18 -25
-37 -14 -19 -25 -31 -25 -27 0 5 10 21 22 37 20 27 28 35 28 27z m-890 -35 c0
-10 11 -29 25 -44 19 -21 23 -32 16 -45 -5 -10 -12 -26 -15 -35 -3 -10 -13
-18 -21 -18 -13 0 -15 6 -10 30 4 20 3 30 -5 30 -8 0 -9 7 -5 18 10 22 10 32
1 66 -4 18 -3 25 4 21 5 -3 10 -14 10 -23z m188 -17 c-2 -15 -6 -21 -11 -16
-6 6 -7 17 -4 25 9 24 17 19 15 -9z m870 -1 c-7 -15 -14 -21 -16 -15 -2 7 2
18 8 26 18 22 21 18 8 -11z m-807 -2 c-7 -13 -6 -23 1 -30 9 -9 8 -12 -4 -12
-16 0 -18 26 -3 50 11 18 16 11 6 -8z m-75 -84 c1 -29 2 -59 5 -67 2 -9 -4
-17 -15 -19 -16 -4 -18 1 -11 50 6 53 14 88 19 88 1 0 2 -24 2 -52z m468 20
c-7 -10 -34 -10 -34 0 0 4 5 13 12 20 9 9 14 9 19 0 4 -7 5 -16 3 -20z m176
-5 c-7 -39 -46 -109 -73 -131 -8 -7 -29 -17 -46 -22 -29 -8 -27 -4 45 91 41
54 76 99 78 99 2 0 0 -17 -4 -37z m188 -39 c14 -15 14 -16 -3 -13 -10 2 -20
10 -23 17 -5 17 6 15 26 -4z m-358 -58 c0 -11 -19 -15 -25 -6 -3 5 1 10 9 10
9 0 16 -2 16 -4z m-455 -72 c-12 -30 -18 -35 -25 -24 -6 9 -6 16 0 18 6 2 10
12 10 22 0 16 19 32 28 25 2 -2 -4 -20 -13 -41z m760 36 c-3 -5 -11 -10 -16
-10 -6 0 -7 5 -4 10 3 6 11 10 16 10 6 0 7 -4 4 -10z m0 -30 c3 -5 2 -10 -4
-10 -5 0 -13 5 -16 10 -3 6 -2 10 4 10 5 0 13 -4 16 -10z m-275 -15 c0 -2 -10
-10 -22 -16 -21 -11 -22 -11 -9 4 13 16 31 23 31 12z m-175 -15 c4 -6 -6 -10
-22 -10 -22 0 -25 2 -13 10 19 12 27 12 35 0z m-195 -20 c0 -5 -5 -10 -11 -10
-5 0 -7 5 -4 10 3 6 8 10 11 10 2 0 4 -4 4 -10z m690 -25 l25 -13 -30 -7 c-17
-4 -38 -9 -49 -12 -10 -3 -16 -1 -14 3 3 5 8 17 11 27 8 20 23 21 57 2z m-740
-20 c0 -2 -10 -9 -22 -15 -22 -11 -22 -10 -4 4 21 17 26 19 26 11z m806 -31
c-54 -19 -108 -34 -120 -32 -11 2 27 17 84 34 140 42 158 41 36 -2z m-313 15
c25 1 36 -2 32 -9 -4 -6 -2 -17 4 -24 6 -7 9 -21 5 -29 -5 -13 -10 -14 -32 -5
-15 7 -33 19 -40 27 -6 8 -24 17 -39 19 -33 4 -37 7 -28 22 5 7 17 9 34 4 14
-4 43 -6 64 -5z m-178 -18 c-3 -6 -11 -11 -17 -11 -6 0 -6 6 2 15 14 17 26 13
15 -4z m315 4 c-7 -8 -17 -15 -22 -15 -6 0 -5 7 2 15 7 8 17 15 22 15 6 0 5
-7 -2 -15z m-564 -4 c-3 -5 -16 -11 -28 -14 -13 -2 -32 -8 -43 -11 -11 -4 -4
2 15 13 37 21 65 27 56 12z m569 -41 c-3 -5 -10 -10 -16 -10 -5 0 -9 5 -9 10
0 6 7 10 16 10 8 0 12 -4 9 -10z m-660 -28 c-33 -20 -73 -37 -63 -27 11 11 72
44 83 44 6 1 -3 -7 -20 -17z m-282 -22 c3 -11 2 -20 -3 -20 -8 0 -20 24 -20
41 0 17 17 1 23 -21z m313 -2 c-11 -6 -14 -13 -8 -17 6 -3 -8 -17 -31 -30 -23
-13 -36 -18 -29 -10 19 21 14 31 -10 18 -40 -20 -5 8 42 34 25 14 47 23 50 20
3 -2 -4 -9 -14 -15z"/>
<path d="M1137 1224 c-21 -21 77 -92 109 -80 27 11 -11 64 -54 75 -44 13 -47
13 -55 5z"/>
<path d="M1264 1147 c-8 -21 2 -35 16 -21 5 5 6 15 0 24 -8 12 -10 12 -16 -3z"/>
<path d="M1894 2686 c-28 -6 -59 -18 -69 -26 -9 -8 -29 -15 -44 -15 -27 -1
-161 -32 -198 -46 -11 -4 -46 -5 -77 -2 -50 5 -56 8 -56 29 0 28 -16 40 -35
24 -8 -6 -19 -9 -25 -5 -7 4 -14 -2 -17 -13 -4 -17 -9 -19 -30 -11 -13 5 -42
9 -64 9 -22 0 -49 5 -60 10 -24 13 -24 2 -2 -42 9 -18 21 -42 26 -53 6 -12 -7
-5 -34 19 -24 22 -46 44 -47 48 -9 22 -60 36 -117 31 -33 -3 -71 -6 -85 -7
-15 -1 -26 -9 -28 -20 -3 -15 0 -17 14 -12 28 12 139 17 162 8 11 -4 46 -32
79 -62 32 -30 70 -64 84 -75 14 -11 34 -38 45 -60 15 -31 25 -40 44 -40 16 0
31 -9 42 -27 10 -15 30 -30 45 -34 15 -4 34 -12 41 -17 8 -6 29 -10 47 -9 34
3 34 2 55 -67 14 -47 28 -74 44 -85 13 -8 27 -29 31 -45 3 -17 15 -42 27 -56
11 -14 23 -38 27 -53 13 -51 170 -104 179 -61 2 13 -10 20 -49 30 -40 11 -59
23 -90 59 -21 25 -46 63 -55 86 -15 40 -15 42 20 129 42 103 43 115 16 140
-29 26 -41 10 -75 -92 -14 -46 -28 -83 -30 -83 -4 0 -33 126 -38 165 -3 17 -1
40 4 52 10 27 99 71 160 78 65 8 81 15 77 33 -2 12 -11 16 -31 14 -34 -4 -34
2 1 43 15 17 32 39 37 49 12 20 145 48 169 34 8 -5 29 -29 46 -54 17 -24 40
-52 50 -62 19 -17 17 -20 -51 -117 -39 -55 -72 -101 -74 -103 -2 -2 -13 1 -24
8 -24 12 -28 1 -9 -29 13 -21 -4 -63 -48 -118 l-20 -25 -42 21 c-49 25 -52 25
-52 6 0 -8 14 -24 30 -37 17 -12 30 -26 30 -30 0 -5 -16 -32 -35 -60 -20 -28
-34 -56 -32 -61 7 -23 26 -17 48 15 12 18 33 45 47 60 27 29 43 27 87 -13 15
-13 25 -15 35 -8 12 8 9 15 -20 39 -19 17 -38 30 -42 30 -15 0 -8 18 28 74 37
56 44 62 58 49 4 -4 23 -8 42 -10 43 -2 41 14 -4 36 -17 9 -31 21 -31 26 0 15
112 177 130 188 11 7 32 2 75 -16 69 -31 95 -36 101 -21 4 11 -100 71 -146 83
-14 4 -25 11 -23 14 1 4 -9 29 -24 56 -17 33 -36 55 -59 65 -19 9 -37 21 -40
27 -8 12 -79 9 -151 -5z m-517 -128 c-3 -8 -6 -5 -6 6 -1 11 2 17 5 13 3 -3 4
-12 1 -19z m193 -24 c0 -8 -7 -14 -15 -14 -8 0 -15 9 -15 20 0 13 5 18 15 14
8 -4 15 -12 15 -20z m-103 -130 c-3 -3 -12 -4 -19 -1 -8 3 -5 6 6 6 11 1 17
-2 13 -5z m90 -31 c-3 -3 -10 -2 -16 2 -7 4 -7 10 2 20 10 11 13 11 15 -2 2
-8 1 -17 -1 -20z m-42 17 c3 -5 1 -10 -4 -10 -6 0 -11 5 -11 10 0 6 2 10 4 10
3 0 8 -4 11 -10z m55 -60 c0 -5 -4 -10 -10 -10 -5 0 -10 5 -10 10 0 6 5 10 10
10 6 0 10 -4 10 -10z"/>
<path d="M880 2547 c0 -23 25 -67 37 -67 7 0 27 -13 45 -28 18 -15 65 -48 103
-72 39 -24 81 -54 95 -66 14 -12 45 -24 70 -28 25 -3 55 -9 68 -12 16 -5 22
-2 22 9 0 13 -42 30 -105 41 -11 2 -38 22 -61 43 -36 34 -111 83 -224 146 -21
11 -30 22 -26 32 3 9 0 15 -9 15 -8 0 -15 -6 -15 -13z"/>
<path d="M1531 1988 c9 -19 9 -21 -2 -10 -32 30 -40 1 -9 -36 27 -32 129 -92
146 -85 26 10 14 27 -51 81 -36 29 -65 57 -65 63 0 5 -7 9 -15 9 -13 0 -14 -4
-4 -22z"/>
<path d="M1226 1944 c-4 -10 -2 -22 3 -27 14 -14 43 0 39 20 -4 24 -34 28 -42
7z"/>
<path d="M1446 1881 c-21 -23 -20 -34 3 -55 31 -28 69 -25 89 6 16 27 16 28
-8 45 -34 24 -65 25 -84 4z"/>
<path d="M2751 1848 c-29 -33 -34 -34 -85 -30 l-53 4 -2 -53 c-2 -95 -22 -142
-65 -153 -16 -4 -25 -15 -30 -37 -3 -17 -3 -35 0 -40 7 -13 34 -11 34 2 0 5
22 33 49 60 49 49 50 52 48 107 -1 31 -6 62 -10 69 -4 7 -1 10 10 9 10 -2 28
1 41 5 13 5 22 5 22 -1 0 -14 65 30 80 53 7 13 8 23 2 29 -6 6 -21 -2 -41 -24z"/>
<path d="M1550 1810 c-18 -25 -19 -34 -10 -45 19 -23 46 -18 59 11 13 30 6 64
-14 64 -7 0 -23 -14 -35 -30z"/>
<path d="M253 1413 c-18 -7 -17 -63 1 -63 13 0 26 28 26 58 0 13 -6 14 -27 5z"/>
<path d="M1896 1351 c-4 -5 -4 -21 0 -34 4 -20 -1 -30 -30 -53 -39 -31 -45
-54 -21 -74 12 -10 18 -10 30 0 8 7 15 18 15 25 0 6 13 24 30 38 27 24 29 29
18 54 -16 39 -34 57 -42 44z"/>
</g>
</svg>
