<svg version="1.1" xmlns="http://www.w3.org/2000/svg" viewBox="0 0 889.17 1028.7" xmlns="http://www.w3.org/2000/svg">
<defs>
<style>.cls-1{fill:#040404;}</style>
</defs>
<g data-name="Layer 2">
<g data-name="Male_Rider_Sketch Image">
<path class="cls-1" d="m2.07 713.86c2.68 13.69 18.86 6.77 21.63 17.91 3.31 15.68 31 14.08 17.43 23.53-2.66-0.47-2.19-5.92-6.33-4-11.64 2.65-13.42 15.8-11.69 26.16-2.37 13.54 3.1 19.74 10.6 31.46 0.75 10.29-2.85 32.17 15.94 26.56 6.77-3 10.43 2.92 4.47 6.94-9.47 6.1-10.73 17.17-16.31 25.54-14.16 18.13-16.07 41.04-23.06 61.62-4.79 8.21 7.44 14.75 8.63 22.52 3.86 13 18.16 17.06 30 15.86-1.4 9 0.82 13.37 9.46 17.44 4.38 10.21 0.91 22.73 12.47 31.49 57.71 43.56 108.7-44.9 139.94-84.06 15.51-11.17 22.57-29.83 37-41.22-5.1 24.65-15.74 10.29-16.66 24.33 0 3-0.35 5.14-4.05 5.56-5.68 0.88-3.76 9.38 1.2 10.07 14.91 4.51 31.26 5 43.94 15.17 3.72 3 6.43 1.54 7.94-3.35 7.75-4.36 4.88-9.19-0.08-14.44 17-2.3 32.46 19.76 42.18 15.54 2-1.14 3.73 0.83 5.42 1.79 13.65 7.56 25.37-17.12 17.06-28.39-3.63-5.09-1.09-11.14-3.21-16.43 2.55-5.26 12.44-5.82 17.64-3-9.75 3.2-16.62 7.22-13.85 12.75 9.34 11.91 86.38-29.41 100.77-19.65-19.18 6.78-39.1 9.74-57.35 19.09-11.32 5.91-24.72 0.78-36 6.45-22.1 24.31 58.33 0.38 65.48-4.74 12.55-6.5 26.76-7.82 40.24-11.38a270.44 270.44 0 0 0 42.15-15.35c12.08-3.2 5.05-25.07-2-16.06-4.68 9.59-14.62 9.11-22.79 13.62-3.55-10.28 12.23-12.13 4.81-20.48-7.42-9.39-19.25-5.9-22-15.5-4.25-8.85-16.12-10-21.87-18 21.19 12 44.89 25.36 67 32.8 2.42-1.63 2.08-4.2 1.14-6.33-14.86-39 31-47.77-24.21-83.53 13.83 0.91 4.62-12.49 14.47-13.49 5.68 2.24-3.74 9.92 9.47 15.16-9.46 12.61 7 20.47 16.58 24.36 3.36 1.48 5.9-0.78 8.89-1.7 2.13-0.09 4 3.27 6.31 0.73 11-7.51 7.68-22.23 19.67-26.86 7.79-5 20.35 1.74 23.9-8.47 1.09-3.39 2.69-6 7.11-5.06 44.67-33.22 43.68-5.44 71.23-20.21 4.78-4.42 9.86-1.35 15.19-2.05 34.75-3.61 24.15 24.34 74.84-11.37 16.22-43.28 29.92-105.22 17.9-148.74-7.86 0.72-7.81 6.9-8.55 12.47-0.52-5.08-1-10.17-1.58-15.61 12.16 3.24 20.41 8.29 28.9-4.35 3.28-6.34 14.3-10.37 10.74-18.67-6.83-7.55-8.07 7.86-12.68-11.95-0.76-2.36-0.79-4.28 2.47-4.62 7.68-1.13-1.27-23.22-1.85-28.72-1.74-5.26-9.83-2.83-13.94-6.44-2.37-0.76 1.35-4.79 0.23-7.46 6.79-2.6 1.7-6.74 1.19-10.63 8.66-2.63 22 4 22.41-9.47 0.37-2.2 1.79-3.46 3.3-4.8 22.5-16.65 1.18-16.07 13-23.79 10.64-5-3.1-10-4-16.72-3.8-11.26-36.26-11.67-45.33-17.83 3.63-8.74 34.25 10.26 44.27 10.35 5.6 1.87 13.78-1.73 8-7.94-12.2-10.59-30.07-11-44.43-19.28 2.52-3.77 5.32-7.11 9.34-8 22.3-8.67 43.76-15.94 67.62-20.13 1.57 6.85 24.07 9.11 31.16 15.18 2.82 1.66 4.64 0.86 6.39-1.38 10.15-10.6-25.85-20.86-33.19-21.11-2.9-0.12-2.49-2.43-2.38-4.05 1.08-15.79-0.9-31.65 1.17-47.42-0.47-4.35 2.59-12.41-3.81-13.2 9-16.93-8.86-31.21-7.47-47.61a2.71 2.71 0 0 0-0.69-3.27c-6.56-5.09-4.79-13-6.54-19.62 4.64-9.77 38.06-37.68 9.74-39.86 14.88-8.18-5.71-33.62 10.52-42.13 11.18-6.19-7.68-11.94-16.94-1.23-1.24-3.31-2.07-10.17 3.36-8.51 5.1 1.07 10.17-1.63 15.37-0.44 15.11-32.38-11.28-78.33-38.5-98.68-19.45-3.41 21.77 34.47 23.56 40.47-1.48 9.68 4.58 17.58 6.15 26.53 1.23 7-1.53 14.24 1.07 21.25 0.06 3.47-7.86 2.6-10.47 3.85 2.85-13.68-19.61-9.36-28.09-11.17-23.44-0.16-46.93-3.41-70.21-4.26-5.18 1.45-8.78 2.73-10.09-5.32-0.73-4.52-7.2-7.47-11.52-10.55-12-8.18-20.74-24.76-37.38-18.65-17.21 7-15.79 31.9-7 44.39 4.65 7.77 16.18 40.84 27.58 34.42 6.65-2.75-3.14-10.31 5.6-12.1-2.22 3.46-1.84 6.19 0.29 9.09 3.49 5.84-12.63 7.44-2.47 14.82 21.21 15.64 48.24 24.59 69.33 37.39 20.5-2.55 41.7 11.36 60.72-0.91-2.8 5.28-6.36 7.44-11.24 9.72-5.7 10.95-16.78 16.34-25.26 24.4-4.89 4.64-11.1 2.72-16.67 1.43-13.59-3.44-37.65-17-38.89-32-0.76-9.36-14-7.2-11.77 1.93 6.37 40.52 8.73 48.7-17.34 81.79h-1.73c-1.06-5.3 3.15-21.35-4-21.76-4.59-0.54-7.14 2.47-7.89 6.68-1.71 7.22-1 89.46 14.46 64.79 2.55-6.09-2.7-18 8.34-11.23-9.15 3.08-2.67 27.1-14.94 20.79-1.56-0.89-3.06 0.07-4.06 1.13-6 10.06-9.91 20-22.42 22.89-18.48 6.91-37.26 11.25-57.19 10.76 16.79-21.22 43.06-34.86 55.44-58.2 0.24-16.48-13.31-1.71-18.13 3.62-17.93 17-33.11 38.32-53.63 52-7.17 1.75-16.1 15.9-3.12 15.1 26.59-4.91 24.1 6.94 58.3-4.9-9.59 10.77 17.34 29.64 8.17 33.43-4 0.65-3 6.39 0.61 6.36 5.81 0.17 10.42 6 17.06 3 2.28-1.05 4.31 2.64 6.35 4.13 4 2.95 9.45 5.17 9.38 11.7 3.37 7.74 16.63 17.95 24.41 19.34 11.5 1.86 18.81 11.14 29.64 13.19 2.74 0.53 2.9 2.55 1.88 4.61-6.19 17.79 15.37 53 20.52 71.74 4.84 14-42.9-16.34-57.29-7.17-16.72 3-26.17-24.16-36.67-33.62-2.29-2-2.17-4.06-0.53-6.09 6.21-8.24-6.34-24.31-6.08-35.79 6 1.24 9.63 14.53 13.85 11.87 2.31-1.39 1.51-3.89 0.6-5.88-6.22-15.9-17.72-20.93-31.33-27.63 7.55-0.26 11.27-14.11 1.37-13.74-24.3 2.09-47.25-6.15-70.88-9.81-13.89-1.13-6.19 6.92-8.38 14.25-3.61 12.15 12.28 6 18.72 11.14-6 7.69-13.16 13.3-20.24 20.23-2.66-10.73-8.23-45.87-21.78-44.5-5.56 13.73 13 22.87 1 36.35-8.56 9.36-19.64 34.15-29.89 37.86-32.12 5.49-10.51 33.35-6.11 17.26 13.89 12.21 74.12-39.26 93.44-46.59 5.84-4.5 14-8.12 13.12-17.13 6.59 2.4 27.14-0.3 25.17 9.37 3.39 12.65-12.26 13.1-21.49 16.48 3.58-4 20-10.68 16.49-16.22-1.66-3.26-5-3.87-8.25-2.81-15.86 4.55-24 21.29-40.28 25.08-9.35 1.41-0.75 22-16.66 32.22-8.33 6.56-1.77 18.93 2 26.27 6.6 7.8 9.45-7.29 14.72-9.71 7.39-12.15 0-33.7 15.3-41.59l1.33 4.22c-2.7 1.5-8.43 2.19-6.63 5.22 4.13 11.66 0.33 14.8 11.8 23.35 7.07 7.2-8.5 4.88-12.27 5-9.95 0-5 12.9 1.61 14.6 36.18 13.65-9.74 6.43 19.36 50.42 12.37 16.73-23.51 27-35.23 31.25a8.14 8.14 0 0 0-6.68 8.76c0.21 6.15-3.09 12-1.27 18.25 0.84 6.7-5.85 0.08-9.77 6.43-28.38 34.44-64.92 58.91-97.18 89.13-5.8 12.2-24.7 1.71-19.25 21.82a27.52 27.52 0 0 0-11.1-8.2c13.1-16.36 112.92-77 101.69-86.63-6.94-10.46-53 36.1-67.73 39.58-13.81 6.71-26 16.76-38.92 25.3-6.39 2.86-5.88 9.38-10.18 13.65-9.14 6.88-1.57 12.23-6.86 13.51-1.81-8.33-15.91-4.45-14-14 1-12.52 9.87-18.16 19.47-22.81 11.33-3.46 19.23-13.42 31.06-15.2 2.21-0.54 4.45-1.13 5.36-3.23 8.79-16.3 32-16 40.42-33.46 4.46-7.79 29.67-12.66 21.81-23.65 15.49 2.1 10.86-9.68 7.64-19.57 6.43-9 2.6-20.2 6.26-29.8 9.13-8.42 15.27-20.09 21.61-30.19 2.38-9.05-5.23-14.36-10.24-5-6.29 9.66-16.92 17.64-15.95 30.34-11.89-0.32-6.89-13.88-37.14-7.33 1.61-5.77 8.59-8.73 10.06-14.27 2-7.49 7.22-8.31 13.41-9 19.32-3.54 40.74-6 58-15 4.37-4.43-0.18-13-6.22-9.63-19.76 8.75-41.7 9.31-62 16.43-7.32 1.43-15.71 4.34-22.92 5.3-5.48-4.23-12.06-3.43-18.23-3.52-27.07-1.95-56 5.05-81.56-6.16-4.12-3.12-9.17 0.67-13.4-2.11 3-2.66 10.09-2.35 7.4-8.72-15.44-48.28-52.32-83.56-75.27-127.93-7.57-16.59 16.13-24.6 24.74-35.47 3.84-3.12-2.14-7.33-5.54-6.39-5.35 0.22-10.32 8.83-14.89 2.85 13.34-17-54-29.07-31.66-9.62-7 1-10.4 7.53-16.94 8.93-10.24 4.11 1.26 37.17 0.87 47.12 0 7.25 14.1 12.27 14.64 2.94 0-6 6.88-0.58 8.08-5.6 9.8-15.74 20.87 21.08 27.1 27.31-12.2 2.27-24.23 3.71-35.06 10.06 0.18-8.7 15.27-11.12 11.49-18.19-1.49-2.21-4.45-3.16-6.14-1.7-7.77 4.65-13 16.79-23.29 16.32-6.09-1.7-28.51-9.32-19.58 3.93-6.19 3.34-12.46 6.68-14.28 14.67-1-3-2.92-5.35-6.6-4.3-8.19 2.23-5.22 20-7.92 27.24-3.15 6-7.07 3.18-8.71 14.65-6 28.67-9.59 58.48-17.32 86.54-13.77-14.72-19-37.66-30.32-54.92-3.4-12.46 9.29-23.58 10.37-36.1 4.65-11.94 5.07-26.21 15.34-35.08 3.21-3.07 4.34-6.51-1-9.62 4.49-2 4.5-5.87 4.76-9.38 4.92-20.08 11-41.33 21.89-58.81 47.17-13.88 24.84 55 58.79 55.51 10.21-2.51-12-34.19-9.52-44.19-0.2-6.82-8.82-7-10.84-12.9-1.34-3.95-2.93-6.67 1-10.48 6.21-3.92 6.09-18.77 13.54-18 4.68 1 16-10.09 17.74-14.6 8.35-2.48 28.89 1 33.93-5.43 2.85-9 26-21.84 17.6-29.83-17.72-11.2-20 25.43-35 22.74-46.66-5.26-20.89 18.3-41 18.4-14.21-0.7-14.48 18.52-20.55 27.87-3.88 8.35-13.94-2.42-19.5 1-6.53 3.5-15.2 4.09-19.76 8.73-12.28 14.12-35.66-18.43-53 22a68.32 68.32 0 0 1-11.8 23.45c-13 17.68-16.71 39.33-25.86 58.7-4.6 9.07 1.5 15.47 6.13 21.5-0.26 7.15 5.18 10.17 9.17 14.9 23.33 25.49 16.59-12.45 34.61 34.78-6.33 0.38-9.08 4.41-11 11.2 0.15-4.07 1.5-6.5-0.3-9.06-9.23 0.42-16.8 33-22.27 27.3-14.42-19.44-72.78-36.16-60.71-62.64 10.3-3.18 20.06-8.19 31-9 2.91-0.21 6.79 0.33 6.74-4-0.92-12.9-17.38-5.34-25.48-5.21-10.79 1.07-11.71 5-19 10.57-18.6 3.33-5.67 15.59-20.66 10-4.27-1.41-6.3 5.58-2 6.27 7 0.86 9.61 8.23 15.95 10.14 9.27 11.73 16.3 6.89 19.65 14.2 0.59 6 8.71 2.42 10.83 7.09 13.89 15.69 59.52 57.26 80.26 50.35-12.2 10.67 26.45 16.63 33.29 17.4 26 1 10.09-21 33.61-23.24-8.11 21-25.61 36.08-34.64 56.6-1.65 4.68-7.84 4.14-6.17-1.34 0.31-4.91-2.47-8.85-4.35-13.15 1.6-1.45 3.17-0.47 4.68-0.15 5.58 1.7 8.59-5.48 3.85-8.65-3.32-2.82-7.63-3.16-11.5-4.56-18.37-4.89-34.06-15.23-51.06-23.58-31.25-21-60.73-44.13-91.07-66.41-11.61-2.9-20.44 8.17-18.46 19.81-0.14 17 5.08 30.36 12.82 43.76-7.1 18.56 11.46 20 9.36 10.08 7.19-18.32-20.47-49.9-3.81-62.7 14.51 0.33 9.17 18.74 6.8 27.77-1.63 6 1.9 10.38 5.23 14.31 8.92 7 15.84-15.91 19.3-22.33 14.64 17 31.71 29.51 50.1 40.88-14.59 1.09-28.78 6.41-43 0 3.15-7.57 2.6-8.9-4.59-11.39 0.39-18.76-28.09-8.3-18 23.94 2.53 6.75-8.34 8.31-4.47 15.57 5.72 20.09 3.01 123.82 30.79 121.08 5.3-6.58-5.1-17.48-5.45-25.19-3.46-20.61-9-41.54-7-62.56 1 10.46 19 42.34 12.83 47.72-3.48 3.74-2.06 8.62-1.8 13 0.44 30.17 15.06 0.14 3.78 49.7-10.66-8.19 2.34-17.85-19.8-18.67-14.14-42.64 0.35-83.54-40.19-113.36-9.83-5.39-26 13.1-26.53 24-5.13 5.19-1.99 11.09-0.77 16.31zm179.3-305.94a27.54 27.54 0 0 1-12.79 6.08c4.03-4.13 7.65-5.31 12.79-6.08zm1.28 50.56c-8-1.43-13.5 4.29-20.2 6.88 6.24-5.52 13.44-9.43 21-13.75 0.29 2.98 0.33 4.91-0.8 6.87zm-16.54 19.66c7.69-4.11 14-10.1 22.26-12.6-7.64 3.74-11.73 13.71-22.26 12.6zm9.37 116c-1.21 10-4.92 19.18-9 28.25 1-10 4.95-19.13 9-28.22zm410.69-112.33-8.59 5.28c3.99-7.46 3.99-7.46 8.59-5.28zm38.49-29.36c-8.64 12.21-21.18 17.68-32.3 25 5.92-8.62 16.37-13.57 22.28-21.53 1.17-6.7 5.36-3.87 10.02-3.47zm67.48-369.62c-3.75 0.4-6 2.62-9.36 4.78 1.78-6.98 5.39-15.73 9.36-4.78zm103.76 33.89c-10.36 10.61-56.17 38.67-53.41 51.33-4.36-3.4-18.19-5.11-10.32-11.62 11.75-10.6 24.61-19.75 37.66-28.63 16.05-10.96-0.14-11.8 26.07-11.08zm26 2.47c-6.64-2.4-11.74 1.56-17.36 4.45 0.8-6.08 9.07-8.09 17.37-4.45zm-69.73 272.67c2.87-0.09 5.71-1.77 10.09 0.18-4.32 3.22-7.17 0.7-10.09-0.18zm-50.8-15.41c-2.43-0.15-4.87-0.26-8.21-0.44 9.06-7.09 14.4 0.23 8.21 0.44zm54.72 30.45c-3.46 2.78-6.27 3.68-9.23 0.51-8.74-8.91-16.09 5.47-27.54-5.15-6.48-6.3-14.09 1.6-20.68-3.07-4.75-3.57-20.93-2.22-16.48 6.1 0.9 1.75 2.76 3.27 1.71 6.19-6.38-8.36-10.33-17.5-15.46-26.24 5.68-3.54 11.87-4.62 18.64-6.33-1.69 7.84-10.48-0.37-12.53 6.72-2.15 15.01 66.8 11.75 81.57 21.27zm1.83-51.48c-7.77 3.47-11.53 14.51-23.23 12 8.65-3.32 14.11-11 23.23-12zm82.19-58.12c-8.85-15.69-28.12-14.21-44-17.15 20.29-27.45 35.54 2 42.55-7.1-0.17 8.75 9.54 15.37 1.45 24.25zm-14.85 23.86c5.8-0.78 10.52 0.4 15.57-2.87 0.37 16.71-6.28 7.71-15.57 2.87zm-36.92-15.23c8.37-3.79 56.87-6.73 51.64 6.75-11.52-7.97-13.72-8.68-51.64-6.75zm-39.52-77.24c11.21 7.34 23.54 11.25 36.62 13 2.23 0.3 5.36-0.14 5.38 3-3.05 8.33-14.08 2.07-20.16 1.62-11.95-0.16-16.78-8.87-21.84-17.62zm6.35 383.77-5.39-4.28c2.54-2 2.12-4.87 2.27-7.72 2.45 3.54 3.22 7.31 3.12 12zm-7.09 16.37c4.92 1.53 15.86-7.33 15.72 2.75a40.14 40.14 0 0 1-5.77 20.7c-3.84-7.53-4.23-16.71-9.95-23.45zm-12.51 74.53c3.93-1.58 8.1-2.57 13.08-4.09-6.55 29.85-24.9 17.73-13.08 4.09zm-40.85-160.08c-0.31 0.27-0.62 0.54-0.94 0.8-2.38-3.11-14.13-8.39-11.67-12.31 3.75-4.14 9.63 9.23 12.61 11.51zm12.39 55.27c-17.79 2.62-35.05 8.92-53.42 7.27 17.69-3.37 35.17-8.18 53.42-7.27zm-38.68 52c-4.42 0.12-8.69 2.36-13.71 1 3.84-2.06 7.93-2.36 13.71-0.96zm27.57-18.55c-4.6 3.13-9.62 1.95-14.56 1.57zm-57.45 70.07c-4.31 4.47-8.46-7.22-0.72-7 19.46-0.52 36-1.15 55.48 4.17-16.93 7.61-38.99-6.52-54.75 2.81zm-36.41 4.57c6.39-4.37 16.77 3.7 18.16-9.13 2.74 3.35 2.06 8.39 7 8.08a75.38 75.38 0 0 1-25.15 1.03zm-137.74 156.63c2.85-2.76 10.39 2.22 7.74 5.45-3.59 3.02-4.92-3.99-7.74-5.45zm-365.2 49.53c1.34 7.84-4.57 10.43-8.16 14.45a59.62 59.62 0 0 1 8.16-14.45zm-11-247c-2.4 8.57-15.76 6.21-13.86 17.1-4.43-2.31-5.46-4.78-1.86-7 7.09-3.69 6.22-11.75 11-16.65 1.59 2.2 6.75 2.33 4.69 6.54zm23.5 64.61c-5 2-7.12-8.43-14.93-6.43-0.23 0-0.76-1-1-1.61-5.77-15.56-16.58-35 2.77-45.28-2.34 15.8-3.8 30.52 12.24 39.83-6.39 4.52-4.98 9.08 0.89 13.48zm3.55 36.92c6.37 6.06-4.67 26.42-3.22 36.54-0.24 8.95-4 18.74 4.45 26.34a1.59 1.59 0 0 1-0.08 2.62c-12.4 11.27-16.49 10.33-13.7-7.12 4.12-10.9 1-23.88 6.07-34.06 8.45-9.08-7.47-15.65 6.45-24.33zm1.46-80.65c-5.34-9.78-5.29-18 0.69-19.38-3.86 6.5 6.34 12.58-0.72 19.37zm7.42 157c-2.61 14.7-9.38 29.18-14.27 30.07 0.84-4.14-0.51-7.49-4.39-10.48 19.21-11.11-7.69-11.9 18.63-19.56zm-13.94 81.52c16.82-11.71 35-21 54.55-29.09-1.62 2.44-1.66 4.44 0.88 5.81-12.32 3.32-0.61 7.24-8.76 10.44 12.14-17.49-42.34 11.87-46.7 12.87zm136.45-319.59c-1.22 2.49-2.81 8.62-6.19 7.18-2.36-2.58 4.49-5.2 6.19-7.18zm12.71-19.85-12.53 19.54c1.06-3.58 2.51-7.22-2.16-9.88 4.69-3.36 8.34-7.22 14.69-9.66zm191.88 18.49c-15.4-5.18-14.19-2.39-11.32-19.67 4.06-10.73 46.89-4.37 59.24-8.89 2.7-2.38 5.3-2 8.94 0-10.51 11.24-20.93 21.85-30.7 33.06-7.12 6.25-18.11-3.3-26.16-4.5zm-26.61 74.84c6.26-7.73-9.87-10.55-14.26-14-5.43-3.38-18.58 1.72-8.86 7.25 8.33 2.42 9.65 12.78 19.6 12.84-2.08 2.39-4.23 3.11-6.31 4-13.08-21.86-22 11.75-30.32 17.26-4-14.94-0.81-28-22.61-21.93-4.7-3.5-6.75-1.24-8.4 3-6.66-7.37-8.63-7.24-12.31 0.73a14.33 14.33 0 0 0-9-5.09c-0.75-13.49-12.43-6.42-18.27-10.59 37.59 1.47 9.24-8.41 19.18-14.65 13.43-16.89-18.49-8-27-6.69 3.26-9.17 2.65-10.21-6.49-12.35-4.75-1.26-11.09-3.55-13.95 2-14.58 28.64-26.48 58.44-44.19 85.5-6.86 11.33-17.61 21-17.92 35.75-5.77 10.35-13.76 19.44-21.07 28.78-18.65 30-40.85 57-65.3 81.74-2.12 3.4-5.37 4.34-9.64 4.84 7.52-19.13 16.44-36.62 26.38-54.45 6.19-8.14-8.52-11.39-12.39-4.66-2.67 2.71-5.14 12.16-9.9 8.87-13.48-12.27-0.84-35 1.5-50 1.06-4.2 3.73-5.39 8-4.61 0.19 5.78-10.39 14.12-3.91 17.76 11.31 7.25 20.12-27.08 28.36-33.86 1.12-1.59 2.5-3.64 1.16-5.55-6.11-5.67 19.17-37.52 24.06-43.43 6.62-9 13.28 3.93 22.08 1.14-2.15 6.53-2.14 6.56-6.71 9.17-6.84 9.26-10.68 21-18.29 30.14-2.93 4.16-5.62 8.24-0.1 12.51 1.57 5.55-0.44 9.83 8 8.36-1.7 2.48-6.71 0.79-5.84 5.78 2.54 9 19.72-3.88 10-7.73 11.45-4.37 20.2-22.54 26.13-33.08 5.4-8.62-11.27-8.71-4.76-17.21 10.44-14.64 15.16-32.73 29-45.14 14.46-22.8 27.34-46.92 43.87-68.48 7.26-7.56-14.39-17.81-17-27.5-4.37-7.3-11.65-0.62-15.17 5 0.58-4.92-2.53-5.11-6-5.51 8.06-6 17.14-7.68 24.69-12.32 2.48-5.18 7.19-5.9 12-7.35 10.7-3 7.37 15 21 6.09 5.52-1.47 7.61 1.14 11-5.43 2.78-6.91 11.55-12.75 9.51-20.74 3.83 4.3 3.83 4.3 1.77 12.21 5.7-7.82 10.44 2.37 14.51-3.32-16.11-29.35-35-36.94-14.59-74.83 7.92 9.36 51.53 60.73 34.18 67.87-7.45 1.83-15.75 4.15-20 10.37-10.31 13.18-18.42 2.32-28.53 21.74-3.94 5.24 4.77 9.07 2.91 14.57-1.43 8.38 4.72 7.31 10.51 8.32 0 24.84 31.79-4.26 36.58 9.57 8.09 15.68 27.78-13.14 26.85 21.92-0.06 3.43 0.12 7 4.29 8 16.18 1 4.37-40.85 28.07-22.65 4.87 7.65-29.51 22.9 4.85 42.1 9.52 5.78 4.84-10.15 16.43-8.65-6.81 8-7.05 11.69-1 16.7-3.33 2.27-7.18 4.39-3.59 9.18-4.09 3-12.42 4.57-13.65 9.18 1 5.55-3.67 4.4-6.24 5.67-2.17 1.48-4.52-2.2-2.9-4.11zm-204.37 110.52 2.49 5.24c-3 2.1-6.28 0.42-9.87 3.35 2.2-4.47 3.24-7.78 7.38-8.59zm19.88 17.39c2.69-1.11 5.58-2.07 9.77 0.19-3.9 0.53-6.81-0.51-9.77-0.19zm28 6.2c-6.6 8.51-15.94 6.32-23.17 9.19 7.04-3.55 14.04-7.19 23.2-9.2zm-40.13-36.43c1.49-4.86 41.2-5.76 31.18-12.84 10.56-4.13 6.53-5.22 12.06-11 7.61-4.08 14.42-9.6 24.08-13.1-9.08 5.34 0.21 12.12-3.41 17.8-21.44-14.94 0 26.71-4.27 36.57-9.2-11-4.94-31.8-11.06-32.09-13.74 0.06-6.06 22.61-5.42 31 3.66 11.24-1.72 10.39-10.86 11.51-1.68-4.58-2.28-8.18 3-10.78 11.86-4.21 0.2-22.7-8.47-20.3-8.83 1.04-17.62 2.12-26.83 3.23zm68.53-53.66c3.7-6.23 5.21-11.48 0.74-16.83 10.64-2.61 22.91-1.69 27.26 9.6 1.15 10.84 18.44 20.88 10.18 30.78-3.38-8.39-2.57-20.47-13.44-21.83-5.92 0.28-5.18-10.3-11.77-7.74-6.75 3.81 0.81 13.28 1.53 19.2-9.03-1.29-0.54-15.29-14.46-13.18zm6.83 71c1 6.61-2.75 10.78-5.51 13.86 1.59-3.75 1.7-9.86 5.55-13.87zm27.66-95.59c-1.55 3.68-9.1-1.84-13.62-2.6 5.34-2 14.82-4.82 13.66 2.59zm-40.42-23.12 5.95-9.48c2.74 7 6.64 6 13.43 7.78zm-6.81 31.1c-6.22 1.74-11.94 3.12-15.17 8.84 3-6.85 6.12-13.5 11-19.44-3.28 4.58 0.7 7.41 4.17 10.6zm64.35 21.12-3.82 9.74c-2.71-9.72-2.09-11.19 3.82-9.74zm63.64-3.47-23.55 10.7-1-1c7.51-7 20.83-48 32-36.84-9.5 6-9.89 11.75 2.93 12.15-6.16 3.11-21.29 7.47-10.38 14.99zm8.27 49.33c-7.12 1.29-8.33 7.75-11.19 14.78-2-3.67-5.46-5.11-4.23-8 1.7-4.26 13.06-15.52 15.42-6.78zm-56.19 124.91c8-5.33 7.5-16.31 15.86-21.73 6.88 3.11 14.23 7.92 23.69 11.13-6.04 3.21-25.66 6.07-39.55 10.6zm25.21-79.7c-2.14-2.44-3.83-5.13-1-9.49l14.93 10.18c-5.32 1.55-9.9 3.92-13.93-0.69zm-8.18 42.31c-5.92 4.82-8.69-0.63-12.57-3.64 1.22-2.16 4.48-4 3.11-6-3.56-3.94 4-13 7.31-9.34 4.92 3.74-12.44 9.89 2.15 18.98zm-28.11-74.61c9.85-14.58 21.47-27.56 29.77-43.09 2 24.17 6.65 15.9 9.47 28.46-2.84 22 26.76 38.38 39.07 52.18-17.93-12.24-36.79-23.62-51.71-39.87-5.17-5.88-9.79-4.66-13.23 2.79-4.15-2.06-8.59-1.97-13.37-0.5zm-81.13 116.23c10.66-27.85 9.51 5.07 55.36-9.73-21.92 12.91 8.47 12.73-6.62 30.81-6-6-20.27-5.58-21.83-9.78-2.63-14.34-16.74-7.47-26.91-11.3zm-13-18.46c41.03-48.61 75.45-101.94 114.35-151.82-11.52 17.28-19.19 37.85-35.78 51.11-2.41 1.55-4.67 4.51-2.47 8.16 1.68 4.89-8.89 3.71-2.27 13.67 1.86 2.83 1.06 4.54-0.56 7-33.8 69.34-53.4 24.79-48.78 55.27-8.69 1.42-15.54 7.36-14.71 13.3-3.79-0.47-7.19 0.37-9.83 3.31zm-7.43-46.07c9.12 1.24 16.18-4.82 25.2-7.17-2.47 4.52-4.2 8.35-7.43 11.81-4.53-8.46-11.67-2.66-17.82-4.64zm-0.29-9.84c-7 4.89-15.07 7-23.28 8.66 6.28-6.68 14.89-7.31 23.23-8.66zm-9.28 11.29c-2.27 5.15-7 5.44-10.79 8.55 1.27-6.5 6.33-6.37 10.74-8.55zm-3.71 25.63c-10.78 3-20.43 12.68-33.67 6.48 7.23-4.19 14.68-5.85 22.1-9.16-1 2.68-4 3-3.78 6.6 7.58-4.16 18.13-2.1 21.3-12.7l4.19 3.05c-2.91 3.5-6.85 4.79-10.19 5.73zm-51.21 28.44c14.85-7 29.08-15.37 45.36-18.75-15.28 6.03-29.74 13.9-45.41 18.75zm-14.13-29.87c-5.19 2.67-7.83 10.93-13.42 7.26-0.75-0.48-2.74 1.53-2.07 2.72 2.86 7.81-27.21 23.68-33.77 29.92 0.07-5.07 11.73-15.4 17.06-16.08 18.87-3.69-1.12-14.07 32.15-23.82zm-17.37 67.12c3.72-5.43 10.09-5.62 15.84-7.34-6.65 1.87-8.29 12.85-15.89 7.34zm-46.55 8.3c-2 1.08-4.23 1.87-6.9-0.08 17.45-10.74 35.44-20.08 54.85-26.54-15.03 10.3-32.19 17.54-48 26.62zm-19 44.51a200.41 200.41 0 0 1 53.25-30.08zm2.72 19.92c-2.62 2.56-4.37 5.08-4.12 8.77-9.06-2.28-4.01-12.36 4.12-8.77zm-10.49-27.15c12.56-11.48 28.68-17.55 42-28a6.4 6.4 0 0 0-3.75-3.47c-5.34 5.44-13.3 6-19.75 9.7 13.54-13.13 31-19.48 48-28.19-0.33 2.59-2 4.94 1.51 5.38-3.81 3.62-10.25 2.36-12.56 7.87 3.08 3.28 6.37 1.09 9.61 0.48-20.87 13.65-43.55 23.85-65.06 36.23zm-42.6-36.84c-9.43 11.71-16.74-20.32-5.75-21.23 3.46 1.64-3.39 4.51-0.07 9.29 3.98 4.69-3.59 7.77 5.82 11.94zm9.23-180.39c2.85 15.93 7.16 29.69 22.55 37.34-3.58 5.51-11.27 8.31-7.51 16.56-0.08 3.52-11 10.18-13.23 7.94-9.44-7.83 8.93-18.7-8.26-22.67 2.47-6.15 8-10.74 5.41-17.93-1.9-5.24 2.33-13.89-8.91-13.86 4.46-1.49 8.46-2.43 9.95-7.38zm590.12-638.67c-7.45-26.34-55.62-8.78-75-5.69-11.88 2.76-7.32 8.27-14.45 13.78-7.63-10.9-34.58 3.09-45.62 5.39-10.19 4.2-21.22 3-31.3 6-11.18 11.2-38.39-7.72-43.72 3.71-1.78-5.35-1.54-10.35-1.5-15.3 0.56-10.35-15.19-10.57-13.7 0.12-0.34 9.51 4.26 18.06 4.7 27.83-5-9.33-2.3-20.93-7.59-29.15-10.68-6.15-10.86 4.63-9.32 12.3-13.91-12.94-30.94-8.77-47.18-9.43-3.39-3.67-15.23-11.3-11.67-0.25 2.6 6.32 12.44 14.38 10.72 20.95-3.13 8 9.69 6.18 5.78 14.53-18.46-12.95-29.58-32.37-49.85-42-0.37 1.59-0.65 2.8-0.93 4-16.32-6.34-35.44 1.71-53 2.09-5.47-0.63-9.31 7.14-4.81 10.78 76.43-20.8 69 6.72 122.34 46.61 11 11.06 5 22.12 22.05 32.07 4.18 3.4 10.07-5.56 13.77-1.89 1.5 1.91 3.31 4.09 1.95 6.79-3.55 7.59 15.2 13.5 21.14 15.06 9.46-0.78 10.48 10.78 18.05 8.09 6.52-3.62 14 2.79 19.77-2.36 4.41 15.21 7.58 30.63 12.81 45.5 1.77 8.75 15.95 7.32 17.24 15.62 1.49 23.06 26.44 41.1 20.92 46.52-5.45 14.32 63.87 37 61.78 19.29 1.19-7.42-36.84-10.63-41.51-17.8-43.58-51.72-31-55.4-8.76-115.63 2.34-7.25 1.91-9.4-4.22-13.91-17.05-36.86-26.63 52.13-37.76 58.11-4.82-21.7-20.15-62.72-8.87-82.56 10.14-8.2 23.48-10.11 33.8-18 12.84-4.37 28-1.22 41.07-6.91 9.11-1.31 6.33-15.41-2.9-11.84a71.55 71.55 0 0 1-18.63 4c35-38.74 17.08-42.39 72.27-48.41 27.73-5.93 24.35 27.78 54.41 46.94-15.52 22.7-33.36 44-46.63 68.25-5.4 11.07-11.39-5.47-17.94-1.44-6.34 7.65 12.18 11.75 6.87 19.49-8 13.09-15.5 26.43-24.38 39-5.83 7.36-18.73-10.26-26.87-11.24-6.26-3.87-11.23 2.92-5.24 7.46 3.26 7.16 25.32 14.57 19.32 21.41-8.72 11.61-20.72 22.27-24 36.94 5.23 30.67 31.31-46.57 45.48-31.89 5.1 4.09 14.2 4.19 16.5 11.12a5.09 5.09 0 0 0 4.06 4c8 3.11 13.67-2.86 6.53-9.23-34.82-28.46-31.26-1.53-0.63-57.27 5.85-10.44 10.56 8.75 20.23 1.48 2.35-1.42 5.24 1.39 7.9 2.23 6.18 3.59 10.07-4.09 4.09-7.35s-11.84-6-17.89-8.77c-13.06-3.7 32.82-59.48 39.14-67.46 12.22-17.83 51.25 25.5 62.76 10.83 1.13-7.38-24.67-16.19-30.65-20-9.9-3.54-18.47-12.51-29.63-5.84 8.77-9.72-21.96-62.13-31.3-46.67zm-232.35 36.56c-7.18 4.13-7.74-7.81-4.15-12.48 1.51 4.56 2.84 8.53 4.15 12.48zm3.95 14.15c-5.47 3.14-9 8.47-15 13.13 1.18-3.58 17.81-23.01 15-13.13zm25.21 38h-11.78c1.2-7.4 13.21-7.91 11.78-0.02zm25.54-3.5c-0.68-4 5-5.09 4.39-0.66-0.54 11.53 1.12 22.86 3.25 35.11-5-3-15-5.57-6.3-10.73 7.46-5.74-2.28-13.68-8.82-13.4-3.81-0.6-8.53 0.46-10.71-4.37l4.54-3.94c3.13 8.55 13.08 6.82 13.64-2.03zm4.18-36.55c-1.4 1.89-2.5 1.54-4.42 0.07-5.47-4.2-1.7-9.82-3.23-14.92 11.14 2.52 16.94 4.1 7.65 14.83zm-78.12 266.63c2 9.36-12.36 93.42 7.64 80.54 1.78-7.79-2.13-16.22-0.13-24.36 0.15 7.39 7.62 19.52 0.2 24.42 2.54 5.23-8.82 15.86 1.92 14.93 12.82 0.13 24.76 24 39.67 13.89 17.07-9.34 59.52-1 63.21-27.88-0.19-6.55 4.09-8.44 9.28-4.92 6.23 4.67 9.76-5.2 3.24-7.73-9.31-4.89-18.73-9.61-27.73-15-6.72-3.95-9.6-32.5-20.61-25.23-1 0.73-2.32 0.93-3.05-0.37-1.18-2.39 3.64-4.37 5.58-3.78 7.21 3.24 8.95-4.59 3.67-8.38-19.75-13.18-38-31.3-58.84-41.65-10.39 1.72-8.95-13-18.12-15.23-2.93-1-0.72-3.23-0.8-5.24 14.69 14.64 19.86-34 44.87-28.32-2.08-10-8.54-11.57-26.25-6.41 2.83-11.87 7.6-22.47 11.89-33 7 2.5 13.55 4.85 19.35 9.61 5.78-16-19-39.56-27.15-53.18-3.72-2.89-14-24.83-17.43-14.91-6.75 10.14 33 41.33 30.52 51.47-3.92 2.51-8.09-11.69-13.71 0.13a417.65 417.65 0 0 0-13.69 41.15c2.74 18.25 2.26 11.8-8.19 27.41 0.06-27.82 6.31-53.62 14.66-79.73 1.31-3.65 2.56-8-2.88-9.37-13.39-2.43-14.62 42.11-16.48 52.13 2.41 10.88-23.15 105.02-0.64 89.01zm82.07 47.82c-2.54 0.47-4.36 2.21-7.44 1.16 1.89-2.73 0.47-6.3 3.43-8.59 2.31 1.92 3.26 4.25 4.01 7.43zm-8.47 21c7.67-19.94 20-1.78 31.15 3-13.41-3-16.13 3.91-21.69 1.43-2.27-2.96-5.65-3.76-9.46-4.39zm-24.41-7.78 9.12 1.34c-7.28 4.79-8.29 4.56-9.12-1.3zm-40.79-31.87c9.71 13.08 23.74 18.48 35.09 28.11-10 8.88-31.66-27.59-22.13 10.08-2.56-4.61-2.53-9.79-3.34-14.78-0.9-15.85-12.93-3.41-9.62-23.41zm-6-48.55c11.14 6.24 13.7 10.66 10.59 17.9-2.43-8.23-16.81-7.17-10.55-17.9zm-149.47-258.45c0.19-6.8-9.06-6.3-7.59 3.4-0.77 6.33 5.55 5.66 5.83 9.57-1.21 5 2.16 6.8 5.75 8.5 24.49 9.31 18 15.54 36.15 25.42 15.72 9.35 30.34 20.46 46.57 29 2.11 1.11 3.78 2.49 3.76 5.35 0 3.88 2.24 5.6 6.08 5.61 11.71-3 42.93 12.24 46.78 6.14 1-16.16-40.28-11.14-47.82-20-12.67-27.92-102.01-58.84-95.51-72.99zm112.64 158.59c5.51 0.33 16.83 8.7 20.45 4.12 2.69-4.8-3.87-6.59-4.5-11.08 20-5.74 0.14 24.9 8.09 33.28-12.47 5.06-1 23.53 8.71 14.37 3.44-5.74-7.43-9-1-14.71 8-18.29 6.74-40.34 9.46-60.09 1.4-12.27-18.33-16.58-16.35 12.36 1.44 7.46-17.25 1-27.95 7.59-19.46-2.24-7.33 11.12 3.09 14.16zm67.85-271.43c-2.67-5.42 3.17-21.39-3.86-22.62-7.84 1-6.69 24.1-4.62 30.18 1.35 17.32-1.76 35.66-2.66 53.09-13-11.9-25.71-36.72-43.67-38.28 6.22 17.19 24.52 28.31 34.32 43.92 6.09 14.71 20.91 6.32 22.06-6.18-0.28-20.03 3.18-40.11-1.57-60.11zm310.38-38.3c-1.18-4.63-4.9-4.39-8.47-3.7-43.56 5.74-95.95 67.68-74.55 108.84 3.59-0.4 5.17-4.5 4.79-7.65-2.56-34.35 21.13-72.58 54.18-83.35 6.46-4.81 26.93-3.29 24.05-14.14zm73.27 493.27c-0.62-11.28 11.43-9.9 16.66-17.73 4.42-5 7.13-11.09 13.66-14.75 3.68-2.07 3.63-9.22 2.09-14-3.76-9.22 0.58-17.91 0.37-27-0.71-3.52-2.49-6.3-6.47-6.5-7-0.44-5.43 17.57-7 22.31 3.31 12-9.36 34.58-21.05 35.07-10.35 0-7.62 12.55-12.4 18.71-1.54 2.48 0 4.89 1.78 6.73 3.68 4.33 13.08 4.47 12.36-2.84zm-326.89-126.86c-11.39-2.38-26-27.35-31.05-23.16-4 16.94 33.31 35.7 46.53 43 4.43 4.66 6.19-2.17 10-0.72 4.23 1.92 6.3-4.24 2.67-6.23-14.88-14.29-32.47-25.43-45.54-41.59-1.85-1.53-3.66-4.34-6.32-2.28-6.54 3.79 19.88 27.21 23.71 30.98zm-446.25 287.45c15.84-2.14-12-62.77-5.58-79.42 1.37-12.46-15.65-9.43-13.47 7.35 1 13.48 5.19 26.4 6.85 39.73 2.58 9.68 0.36 29.62 12.2 32.34zm421.41-249.09c15.59-30.94 9.74-12.16-3.51-28.3-2.31-3.89-16.5-3.18-20.06 0.2-16.13 9.47-3.5 26.07 11.26 27.1 4.71-1.57 6.72 9.45 12.31 1zm127.21 161.29c0.94 5.38 5.1 13.36-2.31 18.79-4.94 3.88-7.6 10.27-15 11.55-8.93 2.33-5.78 11-0.85 16.07 1.3 3.08 2.23 7.27 6.5 5.82 15.06-5 2.62-17.49 22.24-27 6.37-3.74 8.13-5.74 5.17-12.47-2.84-6.53-14.09-33.29-15.75-12.76zm-16.89-146.45s0 0 0 0 0-0.02 0 0zm0 0c2.43-12.36-15.56-20.21-19.47-31.79-2.38-4.1-5.94-6-10.82-5.64-6.14 1.47-16.68-2.94-19.73 4.24-0.71 3.16 1.58 5 4 6.25 7.08 4 17.12-2.52 21.91 5.86 4.63 4.97 16.85 26.32 24.12 21.06zm-87.13 22.09c-3 5.2 5.3 9.88 8.09 4.73 3.61-6.79 30.67-41 15-43-11.26 2.71-16.76 28.33-23.09 38.27zm-0.74-21.74c2-6.18 13.55-13.14 4.48-18.59-2.8-19.69-22.17 4.18-22.8 13.25-0.13 8.77 13.77 12.38 18.32 5.34zm-257.4 18.76c3.91-13.46-17.32-20.59-15.1 8.67 0.58 5-1 15.81 7.38 15.48 9.19 1.13 11.6-18.02 7.72-24.15zm588.44-424.58c2.35-10.7-83.53-26.54-64.6-10.44 18.7 2.63 37.63 4.12 55.7 10.53 2.86 0.91 6 2.39 8.9-0.09zm-445.9 3.44c0.73-4 7.7-13.7 5.5-16.5-12.8-4.4-18.39 31.24-19.5 42.58-2.23 2.9 7.77 19.35 12.63 16 4.5-11.31-12.21-11.62 1.37-42.08zm496.62 390c-0.91 4.19 4.95 6.47 5.94 1.73 0.39-1.6 1.25-2.28 3.11-2.44 7.8-0.56 28-18 20.08-26-4.86-3.12-16.81 15.7-21.21 19.14-2.65 4.54-7.85 0.24-7.97 7.57zm-16.17 4.32c24.34 2.22 15.87-19.22-13.58-10.78-2.78 0.76-4.44 2.19-4.33 5.18 1.46 7.38 12.25 4.84 17.86 5.6zm-432.14-403.95c-6.54-9-18.27-20-29.59-12.06 10.1 5.34 15.89 5.41 23.39 16.52 5.25 10.8 14.82 3.79 6.2-4.46zm-381.21 534.97c3.34-11.83-17.72-2.84-12.83 8.66 3 4.55-3.08 6.33-0.26 9 15.99 6.74 6.73-8.77 13.09-17.66zm331.68-190.2c-9.48 1.13-12.63 13.39-2.34 15.76 10.08 0.17 13.66-15.47 2.34-15.76zm-329.49 307.21c-0.53 5.84 9.32 4.44 9.68-0.29 0.35-6.57-9.29-4.87-9.68 0.29zm147.6 129.62c3.59-7 12.84-21.92 4.74-28-14.21-1.6-20.54 17.37-26.27 27.28-6.88 13.72 17.28 10.17 21.53 0.72zm181.56-166.52a10.57 10.57 0 0 1-3.71-7.67c-0.76-7.5-20.84-9.79-27.29-12.83-4.93-1.39-7.12 0.83-7 6.24 1.06 9.47 23.74 18.52 31.68 23.52 6.03 5.12 11.16-4.86 6.32-9.26zm-207.38 172.59c0.44-6.53-10-7.49-14.43-8.69-18.54 1.53 11.1 19.31 14.43 8.69zm222.68-124c-0.09-8.14-12.24-12-11-3.5 2.19 5.79 6.89 3.31 11 3.52zm-6.28-31.2c3.29-3.21 5-11.92-0.58-13-6.49 0.82-4.53 10.77 0.58 13.02z"/>
</g>
</g>
</svg>