<?xml version="1.0" encoding="UTF-8" standalone="no"?>
<!DOCTYPE svg PUBLIC "-//W3C//DTD SVG 1.1//EN" "http://www.w3.org/Graphics/SVG/1.1/DTD/svg11.dtd">
<svg width="100%" height="100%" viewBox="0 0 2481 3508" version="1.1" xmlns="http://www.w3.org/2000/svg" xmlns:xlink="http://www.w3.org/1999/xlink" xml:space="preserve" xmlns:serif="http://www.serif.com/" style="fill-rule:evenodd;clip-rule:evenodd;stroke-linecap:round;stroke-linejoin:round;stroke-miterlimit:1.5;">
    <g transform="matrix(1,0,0,1,-53.7649,-60.6574)">
        <g transform="matrix(2.75011,0,0,2.75011,-417.734,-142.294)">
            <rect x="218.877" y="308.049" width="807.036" height="807.036" style="fill:rgb(237,223,210);"/>
        </g>
        <g transform="matrix(1,0,0,1,40.2723,13.8704)">
            <g transform="matrix(2.25044,0,0,2.25044,-1053.39,-742.738)">
                <g transform="matrix(0.444358,-0,-0,0.444358,474.077,350.831)">
                    <path d="M2015.59,1305.89L2025.18,1384.36L1970.43,1327.34L2015.59,1305.89Z" style="fill:rgb(4,4,4);"/>
                    <path d="M1638.82,2506.41L1560.14,2514.06L1618.5,2460.73L1638.82,2506.41Z" style="fill:rgb(4,4,4);"/>
                    <path d="M453.989,2112.8L447.025,2034.05L499.846,2092.87L453.989,2112.8Z" style="fill:rgb(4,4,4);"/>
                    <path d="M838.436,941.181L917.063,932.947L859.102,986.711L838.436,941.181Z" style="fill:rgb(4,4,4);"/>
                    <path d="M1567.09,933.41C1753.68,1010.58 1907.03,1152.07 1999.44,1330.16M2036.54,2032.67C1958.31,2232.7 1806.73,2396.08 1614.95,2489.67M918.993,2512.48C722.217,2431.99 562.102,2280.09 470.939,2089.08M457.334,1385.54C537.419,1199.51 681.8,1047.56 862.427,957.746" style="fill:none;stroke:rgb(4,4,4);stroke-width:16.67px;"/>
                </g>
            </g>
            <g transform="matrix(1,0,0,1,565.311,225.092)">
                <g transform="matrix(100,0,0,100,923.297,716.549)">
                </g>
                <text x="424.997px" y="716.549px" style="font-family:'HelveticaNeue', 'Helvetica Neue';font-size:100px;stroke:rgb(4,4,4);stroke-width:1px;stroke-linecap:butt;stroke-miterlimit:2;">Equilibrium</text>
            </g>
            <g transform="matrix(1,0,0,1,1370.69,1087.46)">
                <g transform="matrix(100,0,0,100,952.059,716.549)">
                </g>
                <text x="335.359px" y="716.549px" style="font-family:'HelveticaNeue', 'Helvetica Neue';font-size:100px;stroke:rgb(4,4,4);stroke-width:1px;stroke-linecap:butt;stroke-miterlimit:2;">Disorientation</text>
            </g>
            <g transform="matrix(1,0,0,1,-192.848,1087.46)">
                <g transform="matrix(100,0,0,100,972.297,716.549)">
                </g>
                <text x="375.997px" y="716.549px" style="font-family:'HelveticaNeue', 'Helvetica Neue';font-size:100px;stroke:rgb(4,4,4);stroke-width:1px;stroke-linecap:butt;stroke-miterlimit:2;">Reorientation</text>
            </g>
            <g transform="matrix(1,0,0,1,611.406,1931.72)">
                <g transform="matrix(100,0,0,100,892.938,716.549)">
                </g>
                <text x="387.438px" y="716.549px" style="font-family:'HelveticaNeue', 'Helvetica Neue';font-size:100px;stroke:rgb(4,4,4);stroke-width:1px;stroke-linecap:butt;stroke-miterlimit:2;">Exploration</text>
            </g>
            <g transform="matrix(1,0,0,1,604.71,684.955)">
                <text x="523.247px" y="716.549px" style="font-family:'HelveticaNeue', 'Helvetica Neue';font-size:100px;stroke:rgb(4,4,4);stroke-width:1px;stroke-linecap:butt;stroke-miterlimit:2;">Flight</text>
                <g transform="matrix(100,0,0,100,871.397,819.349)">
                </g>
                <text x="421.397px" y="819.349px" style="font-family:'HelveticaNeue', 'Helvetica Neue';font-size:100px;stroke:rgb(4,4,4);stroke-width:1px;stroke-linecap:butt;stroke-miterlimit:2;">Behaviour</text>
            </g>
            <g transform="matrix(0.664901,0,0,0.66743,1688.43,1530.37)">
                <text x="303.636px" y="1357.88px" style="font-family:'HelveticaNeue-Medium', 'Helvetica Neue', sans-serif;font-weight:500;font-size:87.16px;stroke:rgb(4,4,4);stroke-width:1.5px;stroke-linecap:butt;stroke-miterlimit:2;">Self-esteem</text>
                <g transform="matrix(87.1596,0,0,87.1596,757.345,1447.57)">
                </g>
                <text x="332.704px" y="1447.57px" style="font-family:'HelveticaNeue-Medium', 'Helvetica Neue', sans-serif;font-weight:500;font-size:87.16px;stroke:rgb(4,4,4);stroke-width:1.5px;stroke-linecap:butt;stroke-miterlimit:2;">Motivation</text>
            </g>
            <g transform="matrix(0.664901,0,0,0.664901,1624.48,973.851)">
                <text x="201.18px" y="1357.88px" style="font-family:'HelveticaNeue-Medium', 'Helvetica Neue', sans-serif;font-weight:500;font-size:87.16px;stroke:rgb(4,4,4);stroke-width:1.5px;stroke-linecap:butt;stroke-miterlimit:2;">What happened?</text>
            </g>
            <g transform="matrix(0.664901,0,0,0.664901,890.66,1827.37)">
                <text x="356.934px" y="1357.88px" style="font-family:'HelveticaNeue-Medium', 'Helvetica Neue', sans-serif;font-weight:500;font-size:87.16px;stroke:rgb(4,4,4);stroke-width:1.5px;stroke-linecap:butt;stroke-miterlimit:2;">So what?</text>
            </g>
            <g transform="matrix(0.664901,0,0,0.664901,99.518,973.851)">
                <g transform="matrix(87.1596,0,0,87.1596,451.372,1357.88)">
                </g>
                <g transform="matrix(87.1596,0,0,87.1596,478.827,1357.88)">
                </g>
                <text x="341.551px" y="1357.88px" style="font-family:'HelveticaNeue-Medium', 'Helvetica Neue', sans-serif;font-weight:500;font-size:87.16px;stroke:rgb(4,4,4);stroke-width:1.5px;stroke-linecap:butt;stroke-miterlimit:2;">Reﬂection</text>
                <g transform="matrix(87.1596,0,0,87.1596,770.245,1447.57)">
                </g>
                <text x="319.804px" y="1447.57px" style="font-family:'HelveticaNeue-Medium', 'Helvetica Neue', sans-serif;font-weight:500;font-size:87.16px;stroke:rgb(4,4,4);stroke-width:1.5px;stroke-linecap:butt;stroke-miterlimit:2;">Now what?</text>
            </g>
            <g transform="matrix(1,-0,-0,1,13.4926,46.787)">
                <path d="M1213.8,1584.07L1238.8,1509.07L1263.8,1584.07L1213.8,1584.07Z" style="fill:rgb(110,80,12);"/>
                <path d="M1247.13,2411.44C1247.13,2416.03 1243.4,2419.77 1238.8,2419.77C1234.2,2419.77 1230.47,2416.03 1230.47,2411.44L1230.47,2402.66C1230.47,2398.06 1234.2,2394.33 1238.8,2394.33C1243.4,2394.33 1247.13,2398.06 1247.13,2402.66L1247.13,2411.44ZM1247.13,2367.56C1247.13,2372.16 1243.4,2375.9 1238.8,2375.9C1234.2,2375.9 1230.47,2372.16 1230.47,2367.56L1230.47,2350.01C1230.47,2345.41 1234.2,2341.68 1238.8,2341.68C1243.4,2341.68 1247.13,2345.41 1247.13,2350.01L1247.13,2367.56ZM1247.13,2314.91C1247.13,2319.51 1243.4,2323.25 1238.8,2323.25C1234.2,2323.25 1230.47,2319.51 1230.47,2314.91L1230.47,2297.37C1230.47,2292.77 1234.2,2289.03 1238.8,2289.03C1243.4,2289.03 1247.13,2292.77 1247.13,2297.37L1247.13,2314.91ZM1247.13,2262.27C1247.13,2266.87 1243.4,2270.6 1238.8,2270.6C1234.2,2270.6 1230.47,2266.87 1230.47,2262.27L1230.47,2244.72C1230.47,2240.12 1234.2,2236.39 1238.8,2236.39C1243.4,2236.39 1247.13,2240.12 1247.13,2244.72L1247.13,2262.27ZM1247.13,2209.62C1247.13,2214.22 1243.4,2217.95 1238.8,2217.95C1234.2,2217.95 1230.47,2214.22 1230.47,2209.62L1230.47,2192.07C1230.47,2187.47 1234.2,2183.74 1238.8,2183.74C1243.4,2183.74 1247.13,2187.47 1247.13,2192.07L1247.13,2209.62ZM1247.13,2156.97C1247.13,2161.57 1243.4,2165.3 1238.8,2165.3C1234.2,2165.3 1230.47,2161.57 1230.47,2156.97L1230.47,2139.42C1230.47,2134.82 1234.2,2131.09 1238.8,2131.09C1243.4,2131.09 1247.13,2134.82 1247.13,2139.42L1247.13,2156.97ZM1247.13,2104.32C1247.13,2108.92 1243.4,2112.66 1238.8,2112.66C1234.2,2112.66 1230.47,2108.92 1230.47,2104.32L1230.47,2086.77C1230.47,2082.18 1234.2,2078.44 1238.8,2078.44C1243.4,2078.44 1247.13,2082.18 1247.13,2086.77L1247.13,2104.32ZM1247.13,2051.68C1247.13,2056.28 1243.4,2060.01 1238.8,2060.01C1234.2,2060.01 1230.47,2056.28 1230.47,2051.68L1230.47,2034.13C1230.47,2029.53 1234.2,2025.79 1238.8,2025.79C1243.4,2025.79 1247.13,2029.53 1247.13,2034.13L1247.13,2051.68ZM1247.13,1999.03C1247.13,2003.63 1243.4,2007.36 1238.8,2007.36C1234.2,2007.36 1230.47,2003.63 1230.47,1999.03L1230.47,1981.48C1230.47,1976.88 1234.2,1973.14 1238.8,1973.14C1243.4,1973.14 1247.13,1976.88 1247.13,1981.48L1247.13,1999.03ZM1247.13,1946.38C1247.13,1950.98 1243.4,1954.71 1238.8,1954.71C1234.2,1954.71 1230.47,1950.98 1230.47,1946.38L1230.47,1928.83C1230.47,1924.23 1234.2,1920.5 1238.8,1920.5C1243.4,1920.5 1247.13,1924.23 1247.13,1928.83L1247.13,1946.38ZM1247.13,1893.73C1247.13,1898.33 1243.4,1902.07 1238.8,1902.07C1234.2,1902.07 1230.47,1898.33 1230.47,1893.73L1230.47,1876.18C1230.47,1871.58 1234.2,1867.85 1238.8,1867.85C1243.4,1867.85 1247.13,1871.58 1247.13,1876.18L1247.13,1893.73ZM1247.13,1841.09C1247.13,1845.68 1243.4,1849.42 1238.8,1849.42C1234.2,1849.42 1230.47,1845.68 1230.47,1841.09L1230.47,1823.54C1230.47,1818.94 1234.2,1815.2 1238.8,1815.2C1243.4,1815.2 1247.13,1818.94 1247.13,1823.54L1247.13,1841.09ZM1247.13,1788.44C1247.13,1793.04 1243.4,1796.77 1238.8,1796.77C1234.2,1796.77 1230.47,1793.04 1230.47,1788.44L1230.47,1770.89C1230.47,1766.29 1234.2,1762.56 1238.8,1762.56C1243.4,1762.56 1247.13,1766.29 1247.13,1770.89L1247.13,1788.44ZM1247.13,1735.79C1247.13,1740.39 1243.4,1744.12 1238.8,1744.12C1234.2,1744.12 1230.47,1740.39 1230.47,1735.79L1230.47,1718.24C1230.47,1713.64 1234.2,1709.91 1238.8,1709.91C1243.4,1709.91 1247.13,1713.64 1247.13,1718.24L1247.13,1735.79ZM1247.13,1683.14C1247.13,1687.74 1243.4,1691.48 1238.8,1691.48C1234.2,1691.48 1230.47,1687.74 1230.47,1683.14L1230.47,1665.59C1230.47,1660.99 1234.2,1657.26 1238.8,1657.26C1243.4,1657.26 1247.13,1660.99 1247.13,1665.59L1247.13,1683.14ZM1247.13,1630.49C1247.13,1635.09 1243.4,1638.83 1238.8,1638.83C1234.2,1638.83 1230.47,1635.09 1230.47,1630.49L1230.47,1612.94C1230.47,1608.35 1234.2,1604.61 1238.8,1604.61C1243.4,1604.61 1247.13,1608.35 1247.13,1612.94L1247.13,1630.49ZM1247.13,1577.85C1247.13,1582.44 1243.4,1586.18 1238.8,1586.18C1234.2,1586.18 1230.47,1582.44 1230.47,1577.85L1230.47,1569.07C1230.47,1564.47 1234.2,1560.74 1238.8,1560.74C1243.4,1560.74 1247.13,1564.47 1247.13,1569.07L1247.13,1577.85Z" style="fill:rgb(110,80,12);"/>
            </g>
            <g transform="matrix(1,-0,-0,1,13.4926,46.787)">
                <path d="M1216.78,1007.95L1241.78,932.947L1266.78,1007.95L1216.78,1007.95Z" style="fill:rgb(110,80,12);"/>
                <path d="M1250.12,1224.13C1250.12,1228.73 1246.38,1232.47 1241.78,1232.47C1237.18,1232.47 1233.45,1228.73 1233.45,1224.13L1233.45,1214.5C1233.45,1209.9 1237.18,1206.17 1241.78,1206.17C1246.38,1206.17 1250.12,1209.9 1250.12,1214.5L1250.12,1224.13ZM1250.12,1175.97C1250.12,1180.57 1246.38,1184.3 1241.78,1184.3C1237.18,1184.3 1233.45,1180.57 1233.45,1175.97L1233.45,1156.7C1233.45,1152.11 1237.18,1148.37 1241.78,1148.37C1246.38,1148.37 1250.12,1152.11 1250.12,1156.7L1250.12,1175.97ZM1250.12,1118.17C1250.12,1122.77 1246.38,1126.51 1241.78,1126.51C1237.18,1126.51 1233.45,1122.77 1233.45,1118.17L1233.45,1098.91C1233.45,1094.31 1237.18,1090.57 1241.78,1090.57C1246.38,1090.57 1250.12,1094.31 1250.12,1098.91L1250.12,1118.17ZM1250.12,1060.38C1250.12,1064.98 1246.38,1068.71 1241.78,1068.71C1237.18,1068.71 1233.45,1064.98 1233.45,1060.38L1233.45,1041.11C1233.45,1036.51 1237.18,1032.78 1241.78,1032.78C1246.38,1032.78 1250.12,1036.51 1250.12,1041.11L1250.12,1060.38ZM1250.12,1002.58C1250.12,1007.18 1246.38,1010.91 1241.78,1010.91C1237.18,1010.91 1233.45,1007.18 1233.45,1002.58L1233.45,992.947C1233.45,988.348 1237.18,984.614 1241.78,984.614C1246.38,984.614 1250.12,988.348 1250.12,992.947L1250.12,1002.58Z" style="fill:rgb(110,80,12);"/>
            </g>
            <g transform="matrix(1,-0,-0,1,13.4926,46.787)">
                <path d="M1594.59,1490.22L1541.05,1432.05L1618.78,1446.46L1594.59,1490.22Z" style="fill:rgb(110,80,12);"/>
                <path d="M1844.25,1590.15C1848.27,1592.37 1849.73,1597.45 1847.51,1601.47C1845.28,1605.5 1840.21,1606.96 1836.18,1604.74L1827.96,1600.19C1823.93,1597.96 1822.47,1592.89 1824.7,1588.87C1826.92,1584.84 1832,1583.38 1836.02,1585.6L1844.25,1590.15ZM1803.14,1567.42C1807.16,1569.65 1808.62,1574.72 1806.4,1578.75C1804.17,1582.77 1799.1,1584.23 1795.07,1582.01L1778.63,1572.92C1774.6,1570.69 1773.14,1565.62 1775.37,1561.59C1777.59,1557.57 1782.67,1556.11 1786.69,1558.33L1803.14,1567.42ZM1753.81,1540.15C1757.83,1542.38 1759.29,1547.45 1757.07,1551.47C1754.84,1555.5 1749.77,1556.96 1745.74,1554.74L1729.3,1545.64C1725.27,1543.42 1723.81,1538.35 1726.04,1534.32C1728.26,1530.3 1733.34,1528.83 1737.36,1531.06L1753.81,1540.15ZM1704.47,1512.88C1708.5,1515.1 1709.96,1520.18 1707.74,1524.2C1705.51,1528.23 1700.44,1529.69 1696.41,1527.46L1679.97,1518.37C1675.94,1516.15 1674.48,1511.07 1676.71,1507.05C1678.93,1503.02 1684.01,1501.56 1688.03,1503.79L1704.47,1512.88ZM1655.14,1485.61C1659.17,1487.83 1660.63,1492.9 1658.4,1496.93C1656.18,1500.95 1651.11,1502.42 1647.08,1500.19L1630.64,1491.1C1626.61,1488.87 1625.15,1483.8 1627.38,1479.78C1629.6,1475.75 1634.67,1474.29 1638.7,1476.51L1655.14,1485.61ZM1605.81,1458.33C1609.84,1460.56 1611.3,1465.63 1609.07,1469.66C1606.85,1473.68 1601.77,1475.14 1597.75,1472.92L1589.53,1468.37C1585.5,1466.15 1584.04,1461.07 1586.27,1457.05C1588.49,1453.02 1593.57,1451.56 1597.59,1453.79L1605.81,1458.33Z" style="fill:rgb(110,80,12);"/>
            </g>
        </g>
    </g>
</svg>
