<?xml version="1.0" encoding="UTF-8" standalone="no"?>
<!DOCTYPE svg PUBLIC "-//W3C//DTD SVG 1.1//EN" "http://www.w3.org/Graphics/SVG/1.1/DTD/svg11.dtd">
<svg width="100%" height="100%" viewBox="0 0 2481 3508" version="1.1" xmlns="http://www.w3.org/2000/svg" xmlns:xlink="http://www.w3.org/1999/xlink" xml:space="preserve" xmlns:serif="http://www.serif.com/" style="fill-rule:evenodd;clip-rule:evenodd;stroke-linecap:round;stroke-linejoin:round;stroke-miterlimit:1.5;">
    <g transform="matrix(1,0,0,1,-48.8587,473.581)">
        <g transform="matrix(1.31848,0,0,1.31848,-48.7764,-174.861)">
            <rect x="218.877" y="308.049" width="807.036" height="807.036" style="fill:rgb(237,223,210);stroke:black;stroke-width:2.84px;"/>
        </g>
        <g transform="matrix(1.31848,0,0,1.31848,1012.57,-174.689)">
            <rect x="218.877" y="308.049" width="807.036" height="807.036" style="fill:rgb(237,223,210);stroke:black;stroke-width:2.84px;"/>
        </g>
        <g transform="matrix(1.31848,0,0,1.31848,-48.7764,889.12)">
            <rect x="218.877" y="308.049" width="807.036" height="807.036" style="fill:rgb(237,223,210);stroke:black;stroke-width:2.84px;"/>
        </g>
        <g transform="matrix(1.31848,0,0,1.31848,1012.57,889.292)">
            <rect x="218.877" y="308.049" width="807.036" height="807.036" style="fill:rgb(237,223,210);stroke:black;stroke-width:2.84px;"/>
        </g>
        <g transform="matrix(1.20897,0,0,1.20897,63.7552,-53.8816)">
            <circle cx="1025.75" cy="1116.16" r="379.176" style="fill:rgb(237,223,210);stroke:black;stroke-width:3.1px;"/>
        </g>
        <g transform="matrix(1,0,0,1,94.9395,-179.116)">
            <text x="346.347px" y="716.549px" style="font-family:'HelveticaNeue', 'Helvetica Neue';font-size:100px;">Unconsciously</text>
            <g transform="matrix(100,0,0,100,955.747,819.349)">
            </g>
            <text x="392.547px" y="819.349px" style="font-family:'HelveticaNeue', 'Helvetica Neue';font-size:100px;">Incompetent</text>
        </g>
        <g transform="matrix(1,0,0,1,1188.93,-177.7)">
            <text x="370.559px" y="716.549px" style="font-family:'HelveticaNeue', 'Helvetica Neue';font-size:100px;">Consciously</text>
            <g transform="matrix(100,0,0,100,925.309,819.349)">
            </g>
            <text x="362.109px" y="819.349px" style="font-family:'HelveticaNeue', 'Helvetica Neue';font-size:100px;">Incompetent</text>
        </g>
        <g transform="matrix(1,0,0,1,94.9395,1308.37)">
            <text x="346.347px" y="716.549px" style="font-family:'HelveticaNeue', 'Helvetica Neue';font-size:100px;">Unconsciously</text>
            <g transform="matrix(100,0,0,100,924.247,819.349)">
            </g>
            <text x="424.047px" y="819.349px" style="font-family:'HelveticaNeue', 'Helvetica Neue';font-size:100px;">Competent</text>
        </g>
        <g transform="matrix(1,0,0,1,1188.93,1309.79)">
            <text x="367.038px" y="716.549px" style="font-family:'HelveticaNeue', 'Helvetica Neue';font-size:100px;">Consciously</text>
            <g transform="matrix(100,0,0,100,890.288,819.349)">
            </g>
            <text x="390.088px" y="819.349px" style="font-family:'HelveticaNeue', 'Helvetica Neue';font-size:100px;">Competent</text>
        </g>
        <g transform="matrix(1,0,0,1,659.614,558.314)">
            <g transform="matrix(100,0,0,100,549.197,716.549)">
            </g>
            <g transform="matrix(100,0,0,100,578.797,716.549)">
            </g>
            <text x="426.997px" y="716.549px" style="font-family:'HelveticaNeue', 'Helvetica Neue';font-size:100px;">Reﬂective</text>
            <g transform="matrix(100,0,0,100,934.447,819.349)">
            </g>
            <text x="358.347px" y="819.349px" style="font-family:'HelveticaNeue', 'Helvetica Neue';font-size:100px;">Competence</text>
        </g>
    </g>
    <g transform="matrix(0.664901,0,0,0.664901,346.924,321.801)">
        <text x="168.801px" y="1357.88px" style="font-family:'HelveticaNeue-Medium', 'Helvetica Neue', sans-serif;font-weight:500;font-size:87.16px;">Skill level untested</text>
        <g transform="matrix(87.1596,0,0,87.1596,935.805,1447.57)">
        </g>
        <text x="154.245px" y="1447.57px" style="font-family:'HelveticaNeue-Medium', 'Helvetica Neue', sans-serif;font-weight:500;font-size:87.16px;">Motivation r<tspan x="632.228px 680.689px " y="1447.57px 1447.57px ">eq</tspan>uir<tspan x="834.089px 882.55px " y="1447.57px 1447.57px ">ed</tspan></text>
    </g>
    <g transform="matrix(0.664901,0,0,0.664901,1408.07,321.801)">
        <g transform="matrix(87.1596,0,0,87.1596,895.537,1357.88)">
        </g>
        <g transform="matrix(87.1596,0,0,87.1596,922.992,1357.88)">
        </g>
        <text x="47.562px" y="1357.88px" style="font-family:'HelveticaNeue-Medium', 'Helvetica Neue', sans-serif;font-weight:500;font-size:87.16px;">A<tspan x="104.128px 171.938px 220.399px 249.51px 297.971px " y="1357.88px 1357.88px 1357.88px 1357.88px 1357.88px ">waren</tspan>ess of skill deﬁcit</text>
        <text x="172.853px" y="1447.57px" style="font-family:'HelveticaNeue-Medium', 'Helvetica Neue', sans-serif;font-weight:500;font-size:87.16px;">Fr<tspan x="253.65px 302.111px " y="1447.57px 1447.57px ">eq</tspan>uent mistakes</text>
        <g transform="matrix(87.1596,0,0,87.1596,227.764,1537.25)">
        </g>
        <g transform="matrix(87.1596,0,0,87.1596,255.219,1537.25)">
        </g>
        <g transform="matrix(87.1596,0,0,87.1596,972.107,1537.25)">
        </g>
        <text x="117.943px" y="1537.25px" style="font-family:'HelveticaNeue-Medium', 'Helvetica Neue', sans-serif;font-weight:500;font-size:87.16px;">Reﬁned with practice</text>
    </g>
    <g transform="matrix(0.664901,0,0,0.664901,1408.07,1264.91)">
        <text x="206.715px" y="1357.88px" style="font-family:'HelveticaNeue-Medium', 'Helvetica Neue', sans-serif;font-weight:500;font-size:87.16px;">Mistakes decline</text>
        <g transform="matrix(87.1596,0,0,87.1596,549.078,1447.57)">
        </g>
        <g transform="matrix(87.1596,0,0,87.1596,575.749,1447.57)">
        </g>
        <g transform="matrix(87.1596,0,0,87.1596,1039.96,1447.57)">
        </g>
        <text x="50.089px" y="1447.57px" style="font-family:'HelveticaNeue-Medium', 'Helvetica Neue', sans-serif;font-weight:500;font-size:87.16px;">Conscious eﬀort needed</text>
    </g>
    <g transform="matrix(0.664901,0,0,0.664901,347.793,1249.12)">
        <text x="251.166px" y="1357.88px" style="font-family:'HelveticaNeue-Medium', 'Helvetica Neue', sans-serif;font-weight:500;font-size:87.16px;">Second natur<tspan x="790.422px " y="1357.88px ">e</tspan></text>
        <text x="244.586px" y="1447.57px" style="font-family:'HelveticaNeue-Medium', 'Helvetica Neue', sans-serif;font-weight:500;font-size:87.16px;">V<tspan x="293.046px 341.507px " y="1447.57px 1447.57px ">er</tspan>y few err<tspan x="717.862px 769.548px " y="1447.57px 1447.57px ">or</tspan>s</text>
        <g transform="matrix(87.1596,0,0,87.1596,951.929,1537.25)">
        </g>
        <text x="138.12px" y="1537.25px" style="font-family:'HelveticaNeue-Medium', 'Helvetica Neue', sans-serif;font-weight:500;font-size:87.16px;">Able to teach others</text>
    </g>
</svg>
